<svg xmlns="http://www.w3.org/2000/svg" xmlns:xlink="http://www.w3.org/1999/xlink" version="1.1" x="0px" y="0px" viewBox="0 0 100 100" enable-background="new 0 0 100 100" xml:space="preserve"><path d="M56.545,11.262l-0.204-0.356H43.659l-38.8,67.202l6.342,10.987h77.729h0.407l5.803-10.987L56.545,11.262z M93.081,77.395  H28.517l4.196-6.993h17.282H78.83L45.302,12.332h10.213L93.081,77.395z M33.557,68.729L50,40.249l16.443,28.481H33.557z   M68.179,68.729L45.443,28.881L11.764,87.217l-5.258-9.109L44.07,13.049l32.277,55.681H68.179 M88.508,87.643H13.166l32.266-55.887  l3.875,6.843L36.479,60.814l0,0L26.042,78.821h67.039L88.508,87.643z"></path></svg>