<?xml version="1.0" standalone="no"?>
<!DOCTYPE svg PUBLIC "-//W3C//DTD SVG 1.1//EN" "http://www.w3.org/Graphics/SVG/1.1/DTD/svg11.dtd" >
<svg>
<metadata>
Created by FontForge 20090914 at Fri Feb 24 16:36:52 2012
 By root
Roddenberry &#194;&#169; (Neale Davidson). 2011. All Rights Reserved
</metadata>
<defs>
<font id="Roddenberry" horiz-adv-x="900" >
  <font-face 
    font-family="Roddenberry"
    font-weight="400"
    font-stretch="normal"
    units-per-em="2048"
    panose-1="2 0 5 0 0 0 0 0 0 0"
    ascent="1638"
    descent="-410"
    x-height="1200"
    cap-height="1600"
    bbox="-200 -502 1761 2059"
    underline-thickness="150"
    underline-position="-142"
    unicode-range="U+0020-U+F002"
  />
<missing-glyph horiz-adv-x="1229" 
d="M120 0v1721h989v-1721h-989zM180 60h869v1601h-869v-1601zM390 1378q37 33 70 51q63 36 134 36q110 0 177.5 -57t67.5 -153q0 -59 -27.5 -118t-104.5 -155q-76 -96 -119 -158.5t-43 -119.5q0 -45 29 -159h-39q-42 116 -42 177q0 92 98 262t98 260q0 69 -39.5 108.5
t-109.5 39.5q-46 0 -83 -20q-31 -18 -67 -48v54zM467 401l68 69q13 12 24 12q12 0 27 -13l67 -72q11 -13 11 -24q0 -13 -12 -26l-68 -75q-16 -16 -25 -16q-13 0 -24 12l-73 85q-8 11 -8 21q0 12 13 27z" />
    <glyph glyph-name=".notdef" horiz-adv-x="1229" 
d="M120 0v1721h989v-1721h-989zM180 60h869v1601h-869v-1601zM390 1378q37 33 70 51q63 36 134 36q110 0 177.5 -57t67.5 -153q0 -59 -27.5 -118t-104.5 -155q-76 -96 -119 -158.5t-43 -119.5q0 -45 29 -159h-39q-42 116 -42 177q0 92 98 262t98 260q0 69 -39.5 108.5
t-109.5 39.5q-46 0 -83 -20q-31 -18 -67 -48v54zM467 401l68 69q13 12 24 12q12 0 27 -13l67 -72q11 -13 11 -24q0 -13 -12 -26l-68 -75q-16 -16 -25 -16q-13 0 -24 12l-73 85q-8 11 -8 21q0 12 13 27z" />
    <glyph glyph-name=".null" horiz-adv-x="0" 
 />
    <glyph glyph-name="nonmarkingreturn" horiz-adv-x="610" 
 />
    <glyph glyph-name="space" unicode=" " horiz-adv-x="712" 
 />
    <glyph glyph-name="space" unicode="&#xa0;" horiz-adv-x="712" 
 />
    <glyph glyph-name="exclam" unicode="!" horiz-adv-x="400" 
d="M0 1600h250v-1200h-250v1200zM0 250h250v-250h-250v250z" />
    <glyph glyph-name="quotedbl" unicode="&#x22;" horiz-adv-x="750" 
d="M250 1350l-250 -125v375h250v-250zM600 1350l-250 -125v375h250v-250z" />
    <glyph glyph-name="numbersign" unicode="#" horiz-adv-x="1250" 
d="M225 562v151l-225 -113v300l225 112v338h250v-213l150 75v338h250v-213l225 112v-299l-225 -112v-151l225 112v-299l-225 -112v-338h-250v213l-75 -38l-75 -37v-338h-250v213l-225 -113v300zM475 838v-151l150 75v151l-75 -38z" />
    <glyph glyph-name="dollar" unicode="$" 
d="M250 1501v99h250v-100q149 0 199.5 -49t50.5 -201l-250 -125v125h-250v-375l500 250v-775q0 -149 -50.5 -199.5t-199.5 -51.5v-99h-250v100q-149 0 -199.5 49t-50.5 202l250 125v-126h250v399l-500 -249v750q0 149 50.5 199.5t199.5 51.5z" />
    <glyph glyph-name="percent" unicode="%" horiz-adv-x="1350" 
d="M350 1100v151l-100 -1v-151zM950 350v151l-100 -1v-151zM499 871q-54 -20 -149 -20l-100 -1q-150 0 -200 50t-50 199v151q0 149 50.5 199.5t199.5 51.5l100 1q149 -1 199.5 -50t50.5 -202v-86l150 436h250l-299 -870q55 20 149 21l100 1q149 -1 199.5 -50t50.5 -202v-149
q0 -150 -50 -200t-200 -50l-100 -1q-150 0 -200 50t-50 199v87l-150 -436h-250z" />
    <glyph glyph-name="ampersand" unicode="&#x26;" horiz-adv-x="950" 
d="M750 675v-425q0 -150 -50 -200t-200 -50h-250q-150 0 -200 75t-50 175v350q1 126 75 175q-74 25 -75 125v450q0 150 50 200t200 50h250q150 0 200 -50t50 -200v-43l-250 -89v132h-250v-449l75 37v-299l-75 -38v-351h250v300l-100 -50v300l400 199v-299z" />
    <glyph glyph-name="quotesingle" unicode="'" horiz-adv-x="400" 
d="M250 1350l-250 -125v375h250v-250z" />
    <glyph glyph-name="parenleft" unicode="(" horiz-adv-x="650" 
d="M500 -201h-250q-100 1 -175 76t-75 175v1500q0 99 75 174.5t175 75.5h250v-250h-250v-1501h250v-250z" />
    <glyph glyph-name="parenright" unicode=")" horiz-adv-x="650" 
d="M0 1800h250q100 -1 175 -76t75 -176v-1499q0 -100 -75 -175t-175 -75h-250v249h250v1502h-250v250z" />
    <glyph glyph-name="asterisk" unicode="*" horiz-adv-x="850" 
d="M541 1050l159 -300h-250l-100 189l-100 -189h-250l159 300h-159v250h159l-159 300h250l100 -189l100 189h250l-159 -300h159v-250h-159z" />
    <glyph glyph-name="plus" unicode="+" horiz-adv-x="850" 
d="M225 613l-225 -113v300l225 112v338h250v-213l225 112v-299l-225 -112v-338h-250v213z" />
    <glyph glyph-name="comma" unicode="," horiz-adv-x="400" 
d="M250 0l-250 -125v375h250v-250z" />
    <glyph glyph-name="hyphen" unicode="-" horiz-adv-x="750" 
d="M0 800l600 300v-299l-600 -301v300z" />
    <glyph glyph-name="hyphen" unicode="&#xad;" horiz-adv-x="750" 
d="M0 800l600 300v-299l-600 -301v300z" />
    <glyph glyph-name="period" unicode="." horiz-adv-x="400" 
d="M0 250h250v-250h-250v250z" />
    <glyph glyph-name="slash" unicode="/" horiz-adv-x="950" 
d="M550 1600h250l-550 -1600h-250z" />
    <glyph glyph-name="zero" unicode="0" 
d="M500 1600q149 0 199.5 -49t50.5 -202v-1099q0 -150 -50 -200t-200 -50h-250q-150 0 -200 50t-50 199v1101q0 149 50.5 199.5t199.5 51.5zM500 249v1101h-250v-1101h250z" />
    <glyph glyph-name="one" unicode="1" horiz-adv-x="666" 
d="M517 1625v-1625h-240l2 1236l-205 -103v260z" />
    <glyph glyph-name="two" unicode="2" 
d="M0 0v675q0 101 100 150l400 200v325h-250v-175l-250 -125v300q0 150 50 200t200 50h250q150 0 200 -50t50 -200v-350q0 -150 -100 -199l-400 -201v-350h500v-250h-750z" />
    <glyph glyph-name="three" unicode="3" 
d="M350 651v300l150 74v325h-250v-175l-250 -125v300q0 150 50 200t200 50h250q150 0 200 -50t50 -200v-350q0 -125 -70 -180q69 -21 70 -120v-450q0 -150 -50 -200t-200 -50h-250q-150 0 -200 75t-50 175v150l250 125v-275h250v476z" />
    <glyph glyph-name="four" unicode="4" 
d="M0 475v1125h250v-700l250 125v325h250v-1350h-250v725z" />
    <glyph glyph-name="five" unicode="5" 
d="M250 249h250v476l-500 -250v1125h750v-250h-500v-450l500 250v-900q0 -150 -50 -200t-200 -50h-250q-150 0 -200 50t-50 199v76l250 125v-201z" />
    <glyph glyph-name="six" unicode="6" 
d="M250 249h250v376l-250 -125v-251zM750 1050v-800q0 -150 -50 -200t-200 -50h-250q-150 0 -200 50t-50 199v1101q0 149 50.5 199.5t199.5 51.5l250 -1q149 0 199.5 -49t50.5 -202v-99l-250 -125v225h-250v-550z" />
    <glyph glyph-name="seven" unicode="7" 
d="M750 1600v-600q0 -150 -100 -199l-250 -126v-675h-250v750q0 101 100 150l250 125v325h-500v250h750z" />
    <glyph glyph-name="eight" unicode="8" 
d="M500 1350h-250v-449l250 124v325zM500 726l-250 -125v-351h250v476zM750 700v-450q0 -150 -50 -200t-200 -50h-250q-150 0 -200 75t-50 175v350q1 126 75 175q-74 25 -75 125v450q0 150 50 200t200 50h250q150 0 200 -50t50 -200v-350q0 -125 -70 -180q69 -21 70 -120z
" />
    <glyph glyph-name="nine" unicode="9" 
d="M500 1352h-250v-376l250 125v251zM0 551v800q0 150 50 200t200 50h250q150 0 200 -50t50 -199v-1101q0 -149 -50.5 -199.5t-199.5 -51.5l-250 1q-149 0 -199.5 49t-50.5 202v99l250 125v-225h250v550z" />
    <glyph glyph-name="colon" unicode=":" horiz-adv-x="400" 
d="M0 250h250v-250h-250v250zM0 750h250v-250h-250v250z" />
    <glyph glyph-name="semicolon" unicode=";" horiz-adv-x="400" 
d="M0 750h250v-250h-250v250zM250 0l-250 -125v375h250v-250z" />
    <glyph glyph-name="semicolon" unicode="&#x37e;" horiz-adv-x="400" 
d="M0 750h250v-250h-250v250zM250 0l-250 -125v375h250v-250z" />
    <glyph glyph-name="less" unicode="&#x3c;" horiz-adv-x="750" 
d="M185 758l415 -208v-300l-600 300v400l600 350v-300z" />
    <glyph glyph-name="equal" unicode="=" horiz-adv-x="750" 
d="M0 550l600 300v-299l-600 -301v300zM0 1000l600 300v-299l-600 -301v300z" />
    <glyph glyph-name="greater" unicode="&#x3e;" horiz-adv-x="750" 
d="M415 792l-415 208v300l600 -300v-400l-600 -350v300z" />
    <glyph glyph-name="question" unicode="?" 
d="M500 1600q150 0 200 -50t50 -200v-350q0 -150 -100 -199l-150 -76v-325h-250v400q0 101 100 150l150 75v325h-250v-175l-250 -125v300q0 150 50 200t200 50h250zM250 250h250v-250h-250v250z" />
    <glyph glyph-name="at" unicode="@" horiz-adv-x="1150" 
d="M750 650v300h-150v-300h150zM1000 400h-250v100q-50 -99 -150 -100q-150 0 -200 50t-50 200v300q0 150 50 200t200 50q100 0 150 -100v250h-500v-1100h750v-250h-750q-100 0 -175 75t-75 175v1100q0 100 75 175t175 75h500q100 0 175 -75t75 -175v-950z" />
    <glyph glyph-name="A" unicode="A" 
d="M250 1350v-450l250 125v325h-250zM50 1550q50 50 200 50h250q150 0 200 -50t50 -200v-1350h-250v725l-250 -125v-600h-250v1350q0 150 50 200z" />
    <glyph glyph-name="B" unicode="B" 
d="M500 1350h-250v-449l250 124v325zM500 726l-250 -125v-351h250v476zM750 700v-450q0 -150 -50 -200t-200 -50h-500v1600h500q150 0 200 -50t50 -200v-350q0 -125 -70 -180q69 -21 70 -120z" />
    <glyph glyph-name="C" unicode="C" 
d="M500 425l250 125v-300q0 -150 -50 -200t-200 -50h-250q-150 0 -200 50t-50 199v1101q0 149 50.5 199.5t199.5 51.5l250 -1q149 0 199.5 -49t50.5 -202v-99l-250 -125v225h-250v-1101h250v176z" />
    <glyph glyph-name="D" unicode="D" 
d="M500 1600q149 0 199.5 -49t50.5 -202v-1099q0 -150 -50 -200t-200 -50l-500 -1v1601h500zM500 1349h-250v-1100l250 1v1099z" />
    <glyph glyph-name="E" unicode="E" horiz-adv-x="800" 
d="M0 1600h650v-250h-400v-449l400 199v-299l-400 -200v-351h400l-1 -250h-649v1600z" />
    <glyph glyph-name="F" unicode="F" horiz-adv-x="800" 
d="M0 1600h650v-250h-400v-449l400 199v-299l-400 -200v-601h-250v1600z" />
    <glyph glyph-name="G" unicode="G" 
d="M750 250q0 -150 -50 -200t-200 -50h-250q-150 0 -200 50t-50 199v1101q0 149 50.5 199.5t199.5 51.5l250 -1q149 0 199.5 -49t50.5 -202v-99l-250 -125v225h-250v-1101h250v376l-150 -75v300l400 200v-800z" />
    <glyph glyph-name="H" unicode="H" 
d="M250 600v-600h-250v1600h250v-700l250 125v575h250v-1600h-250v725z" />
    <glyph glyph-name="I" unicode="I" horiz-adv-x="400" 
d="M0 1600h250v-1600h-250v1600z" />
    <glyph glyph-name="J" unicode="J" 
d="M750 1600v-1349q0 -149 -50.5 -199.5t-199.5 -51.5l-250 1q-149 0 -199.5 49t-50.5 202v99l250 125v-225h250v1349h250z" />
    <glyph glyph-name="K" unicode="K" 
d="M250 1000l250 600h250l-296 -711l296 -889h-250l-185 556l-65 -156v-400h-250v1600h250v-600z" />
    <glyph glyph-name="L" unicode="L" horiz-adv-x="750" 
d="M0 1601h250v-1351h349v-250h-599v1601z" />
    <glyph glyph-name="M" unicode="M" horiz-adv-x="1300" 
d="M575 1525q25 75 125 75h200q150 0 200 -50t50 -199v-1351h-250v1351h-200v-1351h-250v1351h-200v-1351h-250v1350q0 150 50 200t200 50h200q100 0 125 -75z" />
    <glyph glyph-name="N" unicode="N" 
d="M0 1600h250v-150q50 150 150 150h100q150 0 200 -75t50 -175v-1350h-250v1350h-250v-1350h-250v1600z" />
    <glyph glyph-name="O" unicode="O" 
d="M500 1600q149 0 199.5 -49t50.5 -202v-1099q0 -150 -50 -200t-200 -50h-250q-150 0 -200 50t-50 199v1101q0 149 50.5 199.5t199.5 51.5zM500 249v1101h-250v-1101h250z" />
    <glyph glyph-name="P" unicode="P" 
d="M650 801l-400 -200v-601h-250v1600h500q150 0 200 -50t50 -200v-350q0 -150 -100 -199zM500 1350h-250v-449l250 124v325z" />
    <glyph glyph-name="Q" unicode="Q" 
d="M500 500v850h-250v-1101h121l-71 101zM544 1q-21 -1 -44 -1h-250q-150 0 -200 50t-50 199v1101q0 149 50.5 199.5t199.5 51.5l250 -1q149 0 199.5 -49t50.5 -202v-1099q0 -56 -7 -97l107 -153l-200 -150z" />
    <glyph glyph-name="R" unicode="R" 
d="M500 1350h-250v-449l250 124v325zM252 602l-2 -1v-601h-250v1600h500q150 0 200 -50t50 -200v-350q0 -150 -100 -199l-191 -95l291 -706h-250z" />
    <glyph glyph-name="S" unicode="S" 
d="M0 1350q0 149 50.5 199.5t199.5 51.5l250 -1q149 0 199.5 -49t50.5 -202v-99l-250 -125v225h-250v-475l500 250v-874q0 -149 -50.5 -199.5t-199.5 -51.5l-250 1q-149 0 -199.5 49t-50.5 202v99l250 125v-225h250v498l-500 -249v850z" />
    <glyph glyph-name="T" unicode="T" horiz-adv-x="950" 
d="M275 0v1350l-275 -1v251h810v-251h-285v-1349h-250z" />
    <glyph glyph-name="U" unicode="U" 
d="M750 1600v-1350q0 -150 -50 -200t-200 -50h-250q-150 0 -200 50t-50 199v1351h250v-1351h250v1351h250z" />
    <glyph glyph-name="V" unicode="V" 
d="M500 500v1100h250v-1250l-750 -350v1600h250v-1199z" />
    <glyph glyph-name="W" unicode="W" horiz-adv-x="1300" 
d="M575 75q-25 -75 -125 -75h-200q-150 0 -200 50t-50 199v1351h250v-1351h200v1351h250v-1351h200v1351h250v-1350q0 -150 -50 -200t-200 -50h-200q-100 0 -125 75z" />
    <glyph glyph-name="X" unicode="X" horiz-adv-x="950" 
d="M275 800l-275 800h250l150 -436l150 436h250l-275 -800l275 -800h-250l-150 436l-150 -436h-250z" />
    <glyph glyph-name="Y" unicode="Y" 
d="M500 1600h250v-1349q0 -149 -50.5 -199.5t-199.5 -51.5l-250 1q-149 0 -199.5 49t-50.5 202v99l250 125v-225h250v582l-500 -233v1000h250v-599l250 99v500z" />
    <glyph glyph-name="Z" unicode="Z" 
d="M475 1350h-475v250h750v-250l-474 -1101l474 1v-250h-750v250z" />
    <glyph glyph-name="bracketleft" unicode="[" horiz-adv-x="650" 
d="M500 -201h-500v2002h500l1 -250l-251 -1v-1501h250v-250z" />
    <glyph glyph-name="backslash" unicode="\" horiz-adv-x="950" 
d="M0 1600h250l550 -1600h-250z" />
    <glyph glyph-name="bracketright" unicode="]" horiz-adv-x="650" 
d="M1 49h250v1501l-251 1l1 250h500v-2002h-500v250z" />
    <glyph glyph-name="asciicircum" unicode="^" horiz-adv-x="800" 
d="M325 1775l-75 -75h-250l200 250h250l200 -250h-250z" />
    <glyph glyph-name="underscore" unicode="_" horiz-adv-x="1350" 
d="M1200 -250h-1200v250l1200 -1v-249z" />
    <glyph glyph-name="grave" unicode="`" horiz-adv-x="400" 
d="M0 2050h250v-375l-250 125v250z" />
    <glyph glyph-name="a" unicode="a" horiz-adv-x="850" 
d="M450 775v176h-200v-176l-250 -125v300q0 150 50 200t200 50h200q150 0 200 -50t50 -199v-951h-250v100q-50 -99 -148 -99h-52q-149 0 -199 49q-51 49 -51 200v200q0 100 100 150zM250 375v-124h200v224z" />
    <glyph glyph-name="b" unicode="b" horiz-adv-x="850" 
d="M0 0v1475l250 125v-500q50 100 150 100h50q150 0 200 -50t50 -200v-700q0 -150 -50 -200t-200 -50l-50 -1q-100 2 -150 101v-100h-250zM450 250v700h-200v-700h200z" />
    <glyph glyph-name="c" unicode="c" horiz-adv-x="850" 
d="M450 425l250 125v-300q0 -150 -50 -200t-200 -50h-200q-150 0 -200 50t-50 199v700q0 149 50.5 199.5t199.5 51.5l200 -1q149 0 199.5 -49t50.5 -202v-99l-250 -125v225h-200v-700h200v176z" />
    <glyph glyph-name="d" unicode="d" horiz-adv-x="850" 
d="M450 0v100q-50 -99 -150 -101l-50 1q-150 0 -200 50t-50 200v700q0 150 50 200t200 50h50q100 0 150 -100v375l250 125v-1600h-250zM450 250v700h-200v-700h200z" />
    <glyph glyph-name="e" unicode="e" horiz-adv-x="850" 
d="M250 425v-176h200v176l250 125v-300q0 -150 -50 -200t-200 -50h-200q-150 0 -200 50t-50 199v700q0 149 50.5 199.5t199.5 51.5l200 -1q149 0 200 -49q50 -49 50 -200v-299zM450 825v124h-200v-224z" />
    <glyph glyph-name="f" unicode="f" horiz-adv-x="750" 
d="M400 701v-701h-250v575l-150 -75v300l150 75v474q0 149 50.5 199.5t199.5 51.5l200 -2v-250l-200 1v-349l200 100v-299z" />
    <glyph glyph-name="g" unicode="g" horiz-adv-x="850" 
d="M450 250v700h-200v-700h200zM450 100q-50 -99 -150 -101l-50 1q-150 0 -200 50t-50 200v700q0 150 50 200t200 50h50q100 0 150 -100v100h250v-1349q0 -149 -50.5 -199.5t-199.5 -51.5l-200 2q-149 0 -199.5 49t-50.5 200l250 125v-124l200 -1v249z" />
    <glyph glyph-name="h" unicode="h" horiz-adv-x="850" 
d="M250 1100q50 100 150 100h50q150 0 200 -50t50 -200v-950h-250v950h-200v-950h-250v1475l250 125v-500z" />
    <glyph glyph-name="i" unicode="i" horiz-adv-x="400" 
d="M0 1075l250 125v-1200h-250v1075zM0 1225v250l250 125v-250z" />
    <glyph glyph-name="j" unicode="j" horiz-adv-x="600" 
d="M200 1225v250l250 125v-250zM450 -149q0 -149 -50.5 -199.5t-199.5 -51.5l-200 2v250l200 -1v1224l250 125v-1349z" />
    <glyph glyph-name="k" unicode="k" horiz-adv-x="850" 
d="M250 777l200 423h250l-292 -616l292 -584h-250l-164 327l-36 -77v-250h-250v1475l250 125v-823z" />
    <glyph glyph-name="l" unicode="l" horiz-adv-x="400" 
d="M0 1475l250 125v-1600h-250v1475z" />
    <glyph glyph-name="m" unicode="m" horiz-adv-x="1300" 
d="M700 950v-950h-250v950h-200v-950h-250v1200h250v-100q50 100 150 100h50q150 0 250 -100q50 100 150 100h50q100 0 175 -75t75 -175v-950h-250v950h-200z" />
    <glyph glyph-name="n" unicode="n" horiz-adv-x="850" 
d="M0 1200h250v-100q50 100 150 100h50q150 0 200 -50t50 -200v-950h-250v950h-200v-950h-250v1200z" />
    <glyph glyph-name="o" unicode="o" horiz-adv-x="850" 
d="M450 1200q149 -1 199.5 -50t50.5 -202v-698q0 -150 -50 -200t-200 -50h-200q-150 0 -200 50t-50 199v700q0 149 50.5 199.5t199.5 51.5h200zM450 249v700h-200v-700h200z" />
    <glyph glyph-name="p" unicode="p" horiz-adv-x="850" 
d="M0 -400v1600h250v-100q50 100 150 100h50q150 0 200 -50t50 -200v-700q0 -150 -50 -200t-200 -50l-50 -1q-100 2 -150 101v-500h-250zM450 250v700h-200v-700h200z" />
    <glyph glyph-name="q" unicode="q" horiz-adv-x="850" 
d="M450 -400v500q-50 -99 -150 -101l-50 1q-150 0 -200 50t-50 200v700q0 150 50 200t200 50h50q100 0 150 -100v100h250v-1600h-250zM450 250v700h-200v-700h200z" />
    <glyph glyph-name="r" unicode="r" horiz-adv-x="850" 
d="M0 1200h250v-100q50 100 150 100h50q150 0 200 -50t50 -200v-50l-250 -125v175h-200v-950h-250v1200z" />
    <glyph glyph-name="s" unicode="s" horiz-adv-x="850" 
d="M0 951q0 149 50.5 199.5t199.5 51.5l200 -2q149 0 199.5 -49t50.5 -202l-250 -125v126l-200 1v-276l450 225v-650q0 -149 -50.5 -199.5t-199.5 -51.5l-200 3q-149 0 -199.5 49t-50.5 200l250 125v-126h200v298l-450 -248v651z" />
    <glyph glyph-name="t" unicode="t" horiz-adv-x="750" 
d="M400 1100l200 100v-299l-200 -100v-550l200 1v-250l-200 -2q-149 1 -199.5 51.5t-50.5 199.5v424l-150 -75v300l150 75v300l250 125v-300z" />
    <glyph glyph-name="u" unicode="u" horiz-adv-x="850" 
d="M700 0h-250v100q-50 -100 -150 -100h-50q-150 0 -200 50t-50 200v950h250v-950h200v950h250v-1200z" />
    <glyph glyph-name="v" unicode="v" 
d="M500 500v700h250v-850l-750 -350v1200h250v-799z" />
    <glyph glyph-name="w" unicode="w" horiz-adv-x="1300" 
d="M575 75q-25 -75 -125 -75h-200q-150 0 -200 50t-50 199v951h250v-951h200v951h250v-951h200v951h250v-950q0 -150 -50 -200t-200 -50h-200q-100 0 -125 75z" />
    <glyph glyph-name="x" unicode="x" horiz-adv-x="850" 
d="M231 616l-231 584h250l100 -267l100 267h250l-231 -584l231 -616h-225l-125 316l-125 -316h-225z" />
    <glyph glyph-name="y" unicode="y" horiz-adv-x="850" 
d="M450 1199h250v-1349q0 -149 -50.5 -199.5t-199.5 -51.5l-200 2q-149 0 -199.5 49t-50.5 200l250 125v-124l200 -1v450l-450 -200v1100h250v-699l200 66v632z" />
    <glyph glyph-name="z" unicode="z" horiz-adv-x="850" 
d="M425 951h-425v250h700v-250l-474 -702l474 1v-250h-700v250z" />
    <glyph glyph-name="braceleft" unicode="{" horiz-adv-x="725" 
d="M325 49h250v-250h-250q-100 1 -175 76t-75 176v647l-75 -37v299l75 38v552q0 100 75 175t175 75h250v-249h-250v-552q-1 -126 -75 -175q74 -25 75 -125v-650z" />
    <glyph glyph-name="bar" unicode="|" horiz-adv-x="400" 
d="M0 1800l250 1v-2150l-250 -1v2150z" />
    <glyph glyph-name="braceright" unicode="}" horiz-adv-x="725" 
d="M250 1550h-250v250h250q100 -1 175 -76t75 -176v-647l75 37v-299l-75 -38v-552q0 -100 -75 -175t-175 -75h-250v249h250v552q1 126 75 175q-74 25 -75 125v650z" />
    <glyph glyph-name="asciitilde" unicode="~" 
d="M500 1650q-100 0 -200 100l-50 -100h-250l100 250q50 100 200 100q100 0 150 -100l50 100h250l-100 -250q-51 -100 -150 -100z" />
    <glyph glyph-name="exclamdown" unicode="&#xa1;" horiz-adv-x="400" 
d="M250 0h-250v1200h250v-1200zM250 1350h-250v250h250v-250z" />
    <glyph glyph-name="cent" unicode="&#xa2;" 
d="M250 1100v100h250v-101q149 0 199.5 -49t50.5 -202v-48l-250 -125v174h-250v-500h250v126l250 125v-250q0 -150 -50 -200t-200 -50v-100h-250v100q-150 0 -200 50t-50 199v500q0 149 50.5 199.5t199.5 51.5z" />
    <glyph glyph-name="sterling" unicode="&#xa3;" horiz-adv-x="975" 
d="M425 613v-364l400 1v-250h-825v251h175v237l-175 -88v300l175 88v562q0 149 50.5 199.5t199.5 51.5l150 -1q149 0 199.5 -49t50.5 -202v-99l-250 -125v225h-150v-437l175 87v-299z" />
    <glyph glyph-name="currency" unicode="&#xa4;" horiz-adv-x="850" 
d="M450 701v199h-200v-199h200zM344 1149h12l94 251h250l-107 -269q36 -12 57 -32q50 -49 50 -202v-197q0 -150 -50 -200q-19 -19 -51 -30l101 -270h-225l-99 250h-52l-99 -250h-225l101 270q-32 11 -51 30q-50 50 -50 199v199q0 149 51 200q20 20 56 32l-107 270h250z" />
    <glyph glyph-name="yen" unicode="&#xa5;" horiz-adv-x="950" 
d="M525 263v-263h-250v138l-175 -88v300l175 88v150l-175 -88v300l149 75l-249 725h250l150 -436l150 436h250l-187 -543l87 43v-299l-175 -88v-150l175 87v-299z" />
    <glyph glyph-name="brokenbar" unicode="&#xa6;" horiz-adv-x="400" 
d="M0 800v1000l250 1v-876zM250 625v-974l-250 -1v850z" />
    <glyph glyph-name="section" unicode="&#xa7;" horiz-adv-x="1217" 
d="M654 385q67 19 116 64q88 78 88 199q0 6 -1 12h-3q-1 17 -4 32q-27 74 -136 153q-71 35 -151 35q-94 0 -150.5 -53.5t-56.5 -141.5q0 -147 298 -300zM559 -415q136 7 222 83q87 76 87 198q0 150 -380 331q-147 77 -210 164.5t-63 212.5q0 177 107 284q80 78 204 98
l-48 23q-148 77 -211 164.5t-63 212.5q0 178 107 284q98 95 259 104q10 1 20 1h4q79 0 195.5 -20t116.5 -50v-233h-61q-6 98 -96 159q-84 56 -179 61h-18q-94 0 -150 -53.5t-56 -140.5q0 -159 344 -323q179 -81 245.5 -172.5t66.5 -224.5q0 -206 -121 -339q-57 -47 -119 -77
q130 -67 185 -141q66 -93 66 -225q0 -205 -121 -339q-149 -123 -333 -126v1q-7 -1 -15 -1h-4q-79 0 -195.5 19.5t-116.5 49.5v233h61q6 -97 96 -158q82 -54 174 -60z" />
    <glyph glyph-name="dieresis" unicode="&#xa8;" horiz-adv-x="800" 
d="M0 1950h250v-250h-250v250zM400 1950h250v-250h-250v250z" />
    <glyph glyph-name="copyright" unicode="&#xa9;" horiz-adv-x="1450" 
d="M1050 1600q149 0 199.5 -49t50.5 -202v-849q0 -150 -50 -200t-200 -50h-800q-150 0 -200 50t-50 199v851q0 149 50.5 199.5t199.5 51.5zM1050 499v851h-800v-851h800zM950 1250v-250h-350v-150h350v-250h-350q-150 0 -200 50t-50 200v150q0 150 50 200t200 50h350z" />
    <glyph glyph-name="ordfeminine" unicode="&#xaa;" horiz-adv-x="850" 
d="M450 1175v176h-200v-176l-250 -125v300q0 150 50 200t200 50h200q150 0 200 -50t50 -199v-951h-250v100q-50 -99 -148 -99h-52q-149 0 -199 49q-51 49 -51 200v200q0 100 100 150zM250 775v-124h200v224z" />
    <glyph glyph-name="guillemotleft" unicode="&#xab;" horiz-adv-x="1400" 
d="M185 758l415 -208v-300l-600 300v400l600 350v-300zM835 758l415 -208v-300l-600 300v400l600 350v-300z" />
    <glyph glyph-name="logicalnot" unicode="&#xac;" horiz-adv-x="1216" 
d="M104 920h1008v-589l-1 -1h-118v470h-889v120z" />
    <glyph glyph-name="registered" unicode="&#xae;" horiz-adv-x="1450" 
d="M1050 1600q149 0 199.5 -49t50.5 -202v-849q0 -150 -50 -200t-200 -50h-800q-150 0 -200 50t-50 199v851q0 149 50.5 199.5t199.5 51.5zM1050 499v851h-800v-851h800zM950 1250v-250h-350v-400h-250v400q0 150 50 200t200 50h350z" />
    <glyph glyph-name="macron" unicode="&#xaf;" horiz-adv-x="1200" 
d="M1200 1700h-1200v250l1200 -1v-249z" />
    <glyph glyph-name="degree" unicode="&#xb0;" horiz-adv-x="850" 
d="M450 1600q149 -1 199.5 -50t50.5 -202v-197q0 -150 -50 -200t-200 -50h-200q-150 0 -200 50t-50 199v199q0 149 50.5 199.5t199.5 51.5h200zM450 1150v199h-200v-199h200z" />
    <glyph glyph-name="plusminus" unicode="&#xb1;" horiz-adv-x="850" 
d="M225 863l-225 -113v300l225 112v338h250v-213l225 112v-299l-225 -112v-338h-250v213zM0 350l700 349v-299l-700 -350v300z" />
    <glyph glyph-name="uni00B2" unicode="&#xb2;" horiz-adv-x="850" 
d="M0 400v475q0 101 100 150l350 200v125h-200v-75l-250 -125v200q0 150 50 200t200 50h200q150 0 200 -50t50 -200v-150q0 -150 -100 -199l-350 -201v-150h450v-250h-700z" />
    <glyph glyph-name="uni00B3" unicode="&#xb3;" horiz-adv-x="850" 
d="M300 850v300l150 74v126h-200v-75l-250 -125v200q0 150 50 200t200 50h200q150 0 200 -50t50 -200v-151q0 -125 -70 -180q69 -21 70 -120v-249q0 -150 -50 -200t-200 -50h-200q-150 0 -200 75t-50 175v51l250 125v-176h200v275z" />
    <glyph glyph-name="acute" unicode="&#xb4;" horiz-adv-x="400" 
d="M0 1925l250 125v-375h-250v250z" />
    <glyph glyph-name="mu" unicode="&#xb5;" horiz-adv-x="850" 
d="M700 1200v-950q0 -150 -50 -200t-200 -50l-50 -1q-100 2 -150 101v-500h-250v1600h250v-950h200v950h250z" />
    <glyph glyph-name="paragraph" unicode="&#xb6;" horiz-adv-x="1229" 
d="M1115 1722v-84h-152v-1638h-99v1638h-199v-1638h-101v886q-208 9 -330 122.5t-122 294.5q0 189 129 304t343 115h531z" />
    <glyph glyph-name="periodcentered" unicode="&#xb7;" horiz-adv-x="400" 
d="M0 750h250v-250h-250v250z" />
    <glyph glyph-name="periodcentered" unicode="&#x2219;" horiz-adv-x="400" 
d="M0 750h250v-250h-250v250z" />
    <glyph glyph-name="cedilla" unicode="&#xb8;" horiz-adv-x="600" 
d="M450 -149q0 -149 -50.5 -199.5t-199.5 -51.5l-200 2v250l200 -1v174l250 125v-299z" />
    <glyph glyph-name="uni00B9" unicode="&#xb9;" horiz-adv-x="600" 
d="M450 1600v-1200h-250v825l-200 -92v267z" />
    <glyph glyph-name="ordmasculine" unicode="&#xba;" horiz-adv-x="850" 
d="M450 1600q149 -1 199.5 -50t50.5 -202v-698q0 -150 -50 -200t-200 -50h-200q-150 0 -200 50t-50 199v700q0 149 50.5 199.5t199.5 51.5h200zM450 649v700h-200v-700h200z" />
    <glyph glyph-name="guillemotright" unicode="&#xbb;" horiz-adv-x="1400" 
d="M1065 792l-415 208v300l600 -300v-400l-600 -350v300zM415 792l-415 208v300l600 -300v-400l-600 -350v300z" />
    <glyph glyph-name="onequarter" unicode="&#xbc;" horiz-adv-x="1550" 
d="M863 1200h87v-550l200 100v200h250v-950h-250v450l-450 -225v502l-250 -727h-250l138 400h-138v825l-200 -92v267l450 200v-873l300 873h250z" />
    <glyph glyph-name="onehalf" unicode="&#xbd;" horiz-adv-x="1500" 
d="M338 400h-138v825l-200 -92v267l450 200v-873l300 873h250l-138 -401q18 1 38 1h200q150 0 200 -50t50 -200v-150q0 -150 -100 -199l-350 -201v-150h450v-250h-700v475q0 101 100 150l350 200v125h-200v-75l-180 -90l-270 -785h-250z" />
    <glyph glyph-name="threequarters" unicode="&#xbe;" horiz-adv-x="1650" 
d="M488 401q-18 -1 -38 -1h-200q-150 0 -200 75t-50 175v51l250 125v-176h200v275l-150 -75v300l150 74v126h-200v-75l-250 -125v200q0 150 50 200t200 50h200q150 0 200 -50t50 -200v-151q0 -125 -70 -180q37 -11 55 -45l215 626h250l-137 -400h37v-550l200 100v200h250
v-950h-250v450l-450 -225v357l-200 -582h-250z" />
    <glyph glyph-name="questiondown" unicode="&#xbf;" 
d="M250 0q-150 0 -200 50t-50 200v350q0 150 100 199l150 76v325h250v-400q0 -101 -100 -150l-150 -75v-325h250v175l250 125v-300q0 -150 -50 -200t-200 -50h-250zM500 1350h-250v250h250v-250z" />
    <glyph glyph-name="Agrave" unicode="&#xc0;" 
d="M250 1350v-450l250 125v325h-250zM50 1550q50 50 200 50h250q150 0 200 -50t50 -200v-1350h-250v725l-250 -125v-600h-250v1350q0 150 50 200zM250 2050h250v-375l-250 125v250z" />
    <glyph glyph-name="Aacute" unicode="&#xc1;" 
d="M250 1350v-450l250 125v325h-250zM50 1550q50 50 200 50h250q150 0 200 -50t50 -200v-1350h-250v725l-250 -125v-600h-250v1350q0 150 50 200zM250 1925l250 125v-375h-250v250z" />
    <glyph glyph-name="Acircumflex" unicode="&#xc2;" 
d="M250 1350v-450l250 125v325h-250zM50 1550q50 50 200 50h250q150 0 200 -50t50 -200v-1350h-250v725l-250 -125v-600h-250v1350q0 150 50 200zM375 1775l-75 -75h-250l200 250h250l200 -250h-250z" />
    <glyph glyph-name="Atilde" unicode="&#xc3;" 
d="M250 1350v-450l250 125v325h-250zM50 1550q50 50 200 50h250q150 0 200 -50t50 -200v-1350h-250v725l-250 -125v-600h-250v1350q0 150 50 200zM500 1650q-100 0 -200 100l-50 -100h-250l100 250q50 100 200 100q100 0 150 -100l50 100h250l-100 -250q-51 -100 -150 -100z
" />
    <glyph glyph-name="Adieresis" unicode="&#xc4;" 
d="M250 1350v-450l250 125v325h-250zM50 1550q50 50 200 50h250q150 0 200 -50t50 -200v-1350h-250v725l-250 -125v-600h-250v1350q0 150 50 200zM50 1950h250v-250h-250v250zM450 1950h250v-250h-250v250z" />
    <glyph glyph-name="Aring" unicode="&#xc5;" 
d="M250 1350v-450l250 125v325h-250zM50 1550q50 50 200 50h250q150 0 200 -50t50 -200v-1350h-250v725l-250 -125v-600h-250v1350q0 150 50 200zM250 1950h250v-250h-250v250z" />
    <glyph glyph-name="AE" unicode="&#xc6;" horiz-adv-x="1300" 
d="M500 725l-250 -125v-600h-250v1350q0 150 50 200t200 50h900v-250h-400v-449l400 199v-299l-400 -200v-351h400l-1 -250h-649v725zM500 1350h-250v-450l250 125v325z" />
    <glyph glyph-name="Ccedilla" unicode="&#xc7;" 
d="M250 0q-150 0 -200 50t-50 199v1101q0 149 50.5 199.5t199.5 51.5l250 -1q149 0 199.5 -49t50.5 -202v-99l-250 -125v225h-250v-1101h250v176l250 125v-300q0 -150 -50 -200t-200 -50v-149q0 -149 -50.5 -199.5t-199.5 -51.5l-200 2v250l200 -1v149z" />
    <glyph glyph-name="Egrave" unicode="&#xc8;" horiz-adv-x="800" 
d="M0 1600h650v-250h-400v-449l400 199v-299l-400 -200v-351h400l-1 -250h-649v1600zM250 2050h250v-375l-250 125v250z" />
    <glyph glyph-name="Eacute" unicode="&#xc9;" horiz-adv-x="800" 
d="M0 1600h650v-250h-400v-449l400 199v-299l-400 -200v-351h400l-1 -250h-649v1600zM250 1925l250 125v-375h-250v250z" />
    <glyph glyph-name="Ecircumflex" unicode="&#xca;" horiz-adv-x="800" 
d="M0 1600h650v-250h-400v-449l400 199v-299l-400 -200v-351h400l-1 -250h-649v1600zM325 1775l-75 -75h-250l200 250h250l200 -250h-250z" />
    <glyph glyph-name="Edieresis" unicode="&#xcb;" horiz-adv-x="800" 
d="M0 1600h650v-250h-400v-449l400 199v-299l-400 -200v-351h400l-1 -250h-649v1600zM0 1950h250v-250h-250v250zM400 1950h250v-250h-250v250z" />
    <glyph glyph-name="Igrave" unicode="&#xcc;" horiz-adv-x="400" 
d="M0 1600h250v-1600h-250v1600zM0 2050h250v-375l-250 125v250z" />
    <glyph glyph-name="Iacute" unicode="&#xcd;" horiz-adv-x="400" 
d="M0 1600h250v-1600h-250v1600zM0 1925l250 125v-375h-250v250z" />
    <glyph glyph-name="Icircumflex" unicode="&#xce;" horiz-adv-x="400" 
d="M0 1600h250v-1600h-250v1600zM125 1775l-75 -75h-250l200 250h250l200 -250h-250z" />
    <glyph glyph-name="Idieresis" unicode="&#xcf;" horiz-adv-x="400" 
d="M0 1600h250v-1600h-250v1600zM-200 1950h250v-250h-250v250zM200 1950h250v-250h-250v250z" />
    <glyph glyph-name="Eth" unicode="&#xd0;" horiz-adv-x="1100" 
d="M450 726v-477l250 1v1099h-250v-324l150 75v-299zM200 900v700h500q149 0 199.5 -49t50.5 -202v-1099q0 -150 -50 -200t-200 -50l-500 -1v601l-200 -100v300z" />
    <glyph glyph-name="Ntilde" unicode="&#xd1;" 
d="M0 1600h250v-150q50 150 150 150h100q150 0 200 -75t50 -175v-1350h-250v1350h-250v-1350h-250v1600zM500 1650q-100 0 -200 100l-50 -100h-250l100 250q50 100 200 100q100 0 150 -100l50 100h250l-100 -250q-51 -100 -150 -100z" />
    <glyph glyph-name="Ograve" unicode="&#xd2;" 
d="M500 1600q149 0 199.5 -49t50.5 -202v-1099q0 -150 -50 -200t-200 -50h-250q-150 0 -200 50t-50 199v1101q0 149 50.5 199.5t199.5 51.5zM500 249v1101h-250v-1101h250zM250 2050h250v-375l-250 125v250z" />
    <glyph glyph-name="Oacute" unicode="&#xd3;" 
d="M500 1600q149 0 199.5 -49t50.5 -202v-1099q0 -150 -50 -200t-200 -50h-250q-150 0 -200 50t-50 199v1101q0 149 50.5 199.5t199.5 51.5zM500 249v1101h-250v-1101h250zM250 1925l250 125v-375h-250v250z" />
    <glyph glyph-name="Ocircumflex" unicode="&#xd4;" 
d="M500 1600q149 0 199.5 -49t50.5 -202v-1099q0 -150 -50 -200t-200 -50h-250q-150 0 -200 50t-50 199v1101q0 149 50.5 199.5t199.5 51.5zM500 249v1101h-250v-1101h250zM375 1775l-75 -75h-250l200 250h250l200 -250h-250z" />
    <glyph glyph-name="Otilde" unicode="&#xd5;" 
d="M500 1600q149 0 199.5 -49t50.5 -202v-1099q0 -150 -50 -200t-200 -50h-250q-150 0 -200 50t-50 199v1101q0 149 50.5 199.5t199.5 51.5zM500 249v1101h-250v-1101h250zM500 1650q-100 0 -200 100l-50 -100h-250l100 250q50 100 200 100q100 0 150 -100l50 100h250
l-100 -250q-51 -100 -150 -100z" />
    <glyph glyph-name="Odieresis" unicode="&#xd6;" 
d="M500 1600q149 0 199.5 -49t50.5 -202v-1099q0 -150 -50 -200t-200 -50h-250q-150 0 -200 50t-50 199v1101q0 149 50.5 199.5t199.5 51.5zM500 249v1101h-250v-1101h250zM50 1950h250v-250h-250v250zM450 1950h250v-250h-250v250z" />
    <glyph glyph-name="multiply" unicode="&#xd7;" horiz-adv-x="750" 
d="M181 741l-181 459h250l50 -142l50 142h250l-181 -459l181 -491h-225l-75 191l-75 -191h-225z" />
    <glyph glyph-name="Oslash" unicode="&#xd8;" 
d="M464 1350h-214v-623zM500 727l-164 -478h164v478zM28 81q-28 57 -28 168v1101q0 149 50.5 199.5t199.5 51.5l250 -1q26 0 49 -2l1 2h250l-55 -161q5 -40 5 -90v-1099q0 -150 -50 -200t-200 -50h-500z" />
    <glyph glyph-name="Ugrave" unicode="&#xd9;" 
d="M750 1600v-1350q0 -150 -50 -200t-200 -50h-250q-150 0 -200 50t-50 199v1351h250v-1351h250v1351h250zM250 2050h250v-375l-250 125v250z" />
    <glyph glyph-name="Uacute" unicode="&#xda;" 
d="M750 1600v-1350q0 -150 -50 -200t-200 -50h-250q-150 0 -200 50t-50 199v1351h250v-1351h250v1351h250zM250 1925l250 125v-375h-250v250z" />
    <glyph glyph-name="Ucircumflex" unicode="&#xdb;" 
d="M750 1600v-1350q0 -150 -50 -200t-200 -50h-250q-150 0 -200 50t-50 199v1351h250v-1351h250v1351h250zM375 1775l-75 -75h-250l200 250h250l200 -250h-250z" />
    <glyph glyph-name="Udieresis" unicode="&#xdc;" 
d="M750 1600v-1350q0 -150 -50 -200t-200 -50h-250q-150 0 -200 50t-50 199v1351h250v-1351h250v1351h250zM50 1950h250v-250h-250v250zM450 1950h250v-250h-250v250z" />
    <glyph glyph-name="Yacute" unicode="&#xdd;" 
d="M500 1600h250v-1349q0 -149 -50.5 -199.5t-199.5 -51.5l-250 1q-149 0 -199.5 49t-50.5 202v99l250 125v-225h250v582l-500 -233v1000h250v-599l250 99v500zM250 1925l250 125v-375h-250v250z" />
    <glyph glyph-name="Thorn" unicode="&#xde;" 
d="M250 1351h250q149 0 199.5 -49t50.5 -202v-599q0 -150 -50 -200t-200 -50h-250v-251h-250v1600h250v-249zM250 500l250 1v599h-250v-600z" />
    <glyph glyph-name="germandbls" unicode="&#xdf;" 
d="M350 651v300l150 74v325h-250v-1350h-250v1350q0 150 50 200t200 50h250q150 0 200 -50t50 -200v-350q0 -125 -70 -180q69 -21 70 -120v-450q0 -150 -50 -200t-200 -50h-100v250h100v476z" />
    <glyph glyph-name="agrave" unicode="&#xe0;" horiz-adv-x="850" 
d="M450 775v176h-200v-176l-250 -125v300q0 150 50 200t200 50h200q150 0 200 -50t50 -199v-951h-250v100q-50 -99 -148 -99h-52q-149 0 -199 49q-51 49 -51 200v200q0 100 100 150zM250 375v-124h200v224zM250 1600h250v-375l-250 125v250z" />
    <glyph glyph-name="aacute" unicode="&#xe1;" horiz-adv-x="850" 
d="M450 775v176h-200v-176l-250 -125v300q0 150 50 200t200 50h200q150 0 200 -50t50 -199v-951h-250v100q-50 -99 -148 -99h-52q-149 0 -199 49q-51 49 -51 200v200q0 100 100 150zM250 375v-124h200v224zM250 1500l250 125v-375h-250v250z" />
    <glyph glyph-name="acircumflex" unicode="&#xe2;" horiz-adv-x="850" 
d="M450 775v176h-200v-176l-250 -125v300q0 150 50 200t200 50h200q150 0 200 -50t50 -199v-951h-250v100q-50 -99 -148 -99h-52q-149 0 -199 49q-51 49 -51 200v200q0 100 100 150zM250 375v-124h200v224zM350 1375l-75 -75h-250l200 250h250l200 -250h-250z" />
    <glyph glyph-name="atilde" unicode="&#xe3;" horiz-adv-x="850" 
d="M450 775v176h-200v-176l-250 -125v300q0 150 50 200t200 50h200q150 0 200 -50t50 -199v-951h-250v100q-50 -99 -148 -99h-52q-149 0 -199 49q-51 49 -51 200v200q0 100 100 150zM250 375v-124h200v224zM500 1250q-100 0 -200 100l-50 -100h-250l100 250q50 100 200 100
q100 0 150 -100l50 100h250l-100 -250q-51 -100 -150 -100z" />
    <glyph glyph-name="adieresis" unicode="&#xe4;" horiz-adv-x="850" 
d="M450 775v176h-200v-176l-250 -125v300q0 150 50 200t200 50h200q150 0 200 -50t50 -199v-951h-250v100q-50 -99 -148 -99h-52q-149 0 -199 49q-51 49 -51 200v200q0 100 100 150zM250 375v-124h200v224zM25 1500h250v-250h-250v250zM425 1500h250v-250h-250v250z" />
    <glyph glyph-name="aring" unicode="&#xe5;" horiz-adv-x="850" 
d="M450 775v176h-200v-176l-250 -125v300q0 150 50 200t200 50h200q150 0 200 -50t50 -199v-951h-250v100q-50 -99 -148 -99h-52q-149 0 -199 49q-51 49 -51 200v200q0 100 100 150zM250 375v-124h200v224zM225 1500h250v-250h-250v250z" />
    <glyph glyph-name="ae" unicode="&#xe6;" horiz-adv-x="1300" 
d="M450 0v100q-50 -99 -148 -99h-52q-149 0 -199 49q-51 49 -51 200v200q0 100 100 150l350 175v176h-200v-176l-250 -125v300q0 150 50 200t200 50h200q77 0 127 -13q50 13 123 13l200 -1q149 0 200 -49q50 -49 50 -200v-299l-450 -226v-176h200v176l250 125v-300
q0 -150 -50 -200t-200 -50h-450zM700 725l200 100v124h-200v-224zM450 475l-200 -100v-124h200v224z" />
    <glyph glyph-name="ccedilla" unicode="&#xe7;" horiz-adv-x="850" 
d="M225 0q-129 4 -175 50q-50 50 -50 199v700q0 149 50.5 199.5t199.5 51.5l200 -1q149 0 199.5 -49t50.5 -202v-99l-250 -125v225h-200v-700h200v176l250 125v-300q0 -150 -50 -200q-46 -46 -175 -50v-149q0 -149 -50.5 -199.5t-199.5 -51.5h-200v250l200 1v149z" />
    <glyph glyph-name="egrave" unicode="&#xe8;" horiz-adv-x="850" 
d="M250 425v-176h200v176l250 125v-300q0 -150 -50 -200t-200 -50h-200q-150 0 -200 50t-50 199v700q0 149 50.5 199.5t199.5 51.5l200 -1q149 0 200 -49q50 -49 50 -200v-299zM450 825v124h-200v-224zM250 1600h250v-375l-250 125v250z" />
    <glyph glyph-name="eacute" unicode="&#xe9;" horiz-adv-x="850" 
d="M250 425v-176h200v176l250 125v-300q0 -150 -50 -200t-200 -50h-200q-150 0 -200 50t-50 199v700q0 149 50.5 199.5t199.5 51.5l200 -1q149 0 200 -49q50 -49 50 -200v-299zM450 825v124h-200v-224zM250 1500l250 125v-375h-250v250z" />
    <glyph glyph-name="ecircumflex" unicode="&#xea;" horiz-adv-x="850" 
d="M250 425v-176h200v176l250 125v-300q0 -150 -50 -200t-200 -50h-200q-150 0 -200 50t-50 199v700q0 149 50.5 199.5t199.5 51.5l200 -1q149 0 200 -49q50 -49 50 -200v-299zM450 825v124h-200v-224zM350 1375l-75 -75h-250l200 250h250l200 -250h-250z" />
    <glyph glyph-name="edieresis" unicode="&#xeb;" horiz-adv-x="850" 
d="M250 425v-176h200v176l250 125v-300q0 -150 -50 -200t-200 -50h-200q-150 0 -200 50t-50 199v700q0 149 50.5 199.5t199.5 51.5l200 -1q149 0 200 -49q50 -49 50 -200v-299zM450 825v124h-200v-224zM25 1500h250v-250h-250v250zM425 1500h250v-250h-250v250z" />
    <glyph glyph-name="igrave" unicode="&#xec;" horiz-adv-x="400" 
d="M0 1075l250 125v-1200h-250v1075zM0 1600h250v-375l-250 125v250z" />
    <glyph glyph-name="iacute" unicode="&#xed;" horiz-adv-x="400" 
d="M0 1075l250 125v-1200h-250v1075zM0 1500l250 125v-375h-250v250z" />
    <glyph glyph-name="icircumflex" unicode="&#xee;" horiz-adv-x="400" 
d="M0 1075l250 125v-1200h-250v1075zM125 1325l-75 -75h-250l200 250h250l200 -250h-250z" />
    <glyph glyph-name="idieresis" unicode="&#xef;" horiz-adv-x="400" 
d="M0 1075l250 125v-1200h-250v1075zM-200 1500h250v-250h-250v250zM200 1500h250v-250h-250v250z" />
    <glyph glyph-name="eth" unicode="&#xf0;" horiz-adv-x="850" 
d="M450 250v700h-200v-700h200zM700 0h-250v100q-50 -99 -150 -101l-50 1q-150 0 -200 50t-50 200v700q0 150 50 200t200 50h50q100 0 150 -100v251h-200v249h200q150 0 200 -50t50 -199v-1351z" />
    <glyph glyph-name="ntilde" unicode="&#xf1;" horiz-adv-x="850" 
d="M0 1200h250v-100q50 100 150 100h50q150 0 200 -50t50 -200v-950h-250v950h-200v-950h-250v1200zM500 1250q-100 0 -200 100l-50 -100h-250l100 250q50 100 200 100q100 0 150 -100l50 100h250l-100 -250q-51 -100 -150 -100z" />
    <glyph glyph-name="ograve" unicode="&#xf2;" horiz-adv-x="850" 
d="M450 1200q149 -1 199.5 -50t50.5 -202v-698q0 -150 -50 -200t-200 -50h-200q-150 0 -200 50t-50 199v700q0 149 50.5 199.5t199.5 51.5h200zM450 249v700h-200v-700h200zM250 1600h250v-375l-250 125v250z" />
    <glyph glyph-name="oacute" unicode="&#xf3;" horiz-adv-x="850" 
d="M450 1200q149 -1 199.5 -50t50.5 -202v-698q0 -150 -50 -200t-200 -50h-200q-150 0 -200 50t-50 199v700q0 149 50.5 199.5t199.5 51.5h200zM450 249v700h-200v-700h200zM250 1500l250 125v-375h-250v250z" />
    <glyph glyph-name="ocircumflex" unicode="&#xf4;" horiz-adv-x="850" 
d="M450 1200q149 -1 199.5 -50t50.5 -202v-698q0 -150 -50 -200t-200 -50h-200q-150 0 -200 50t-50 199v700q0 149 50.5 199.5t199.5 51.5h200zM450 249v700h-200v-700h200zM350 1375l-75 -75h-250l200 250h250l200 -250h-250z" />
    <glyph glyph-name="otilde" unicode="&#xf5;" horiz-adv-x="850" 
d="M450 1200q149 -1 199.5 -50t50.5 -202v-698q0 -150 -50 -200t-200 -50h-200q-150 0 -200 50t-50 199v700q0 149 50.5 199.5t199.5 51.5h200zM450 249v700h-200v-700h200zM500 1250q-100 0 -200 100l-50 -100h-250l100 250q50 100 200 100q100 0 150 -100l50 100h250
l-100 -250q-51 -100 -150 -100z" />
    <glyph glyph-name="odieresis" unicode="&#xf6;" horiz-adv-x="850" 
d="M450 1200q149 -1 199.5 -50t50.5 -202v-698q0 -150 -50 -200t-200 -50h-200q-150 0 -200 50t-50 199v700q0 149 50.5 199.5t199.5 51.5h200zM450 249v700h-200v-700h200zM25 1500h250v-250h-250v250zM425 1500h250v-250h-250v250z" />
    <glyph glyph-name="divide" unicode="&#xf7;" horiz-adv-x="950" 
d="M0 701l800 399v-299l-800 -400v300zM250 1250h250v-250h-250v250zM300 500h250v-250h-250v250z" />
    <glyph glyph-name="oslash" unicode="&#xf8;" horiz-adv-x="850" 
d="M356 949h-106v-282zM450 568l-126 -319h126v319zM29 79q-29 56 -29 170v700q0 149 50.5 199.5t199.5 51.5h450l-30 -77q30 -56 30 -175v-698q0 -150 -50 -200t-200 -50h-450z" />
    <glyph glyph-name="ugrave" unicode="&#xf9;" horiz-adv-x="850" 
d="M700 0h-250v100q-50 -100 -150 -100h-50q-150 0 -200 50t-50 200v950h250v-950h200v950h250v-1200zM250 1600h250v-375l-250 125v250z" />
    <glyph glyph-name="uacute" unicode="&#xfa;" horiz-adv-x="850" 
d="M700 0h-250v100q-50 -100 -150 -100h-50q-150 0 -200 50t-50 200v950h250v-950h200v950h250v-1200zM250 1500l250 125v-375h-250v250z" />
    <glyph glyph-name="ucircumflex" unicode="&#xfb;" horiz-adv-x="850" 
d="M700 0h-250v100q-50 -100 -150 -100h-50q-150 0 -200 50t-50 200v950h250v-950h200v950h250v-1200zM350 1375l-75 -75h-250l200 250h250l200 -250h-250z" />
    <glyph glyph-name="udieresis" unicode="&#xfc;" horiz-adv-x="850" 
d="M700 0h-250v100q-50 -100 -150 -100h-50q-150 0 -200 50t-50 200v950h250v-950h200v950h250v-1200zM25 1500h250v-250h-250v250zM425 1500h250v-250h-250v250z" />
    <glyph glyph-name="yacute" unicode="&#xfd;" horiz-adv-x="850" 
d="M450 1199h250v-1349q0 -149 -50.5 -199.5t-199.5 -51.5l-200 2q-149 0 -199.5 49t-50.5 200l250 125v-124l200 -1v450l-450 -200v1100h250v-699l200 66v632zM250 1500l250 125v-375h-250v250z" />
    <glyph glyph-name="thorn" unicode="&#xfe;" horiz-adv-x="850" 
d="M0 0v1600h250v-350q50 100 150 100h50q150 0 200 -50t50 -200v-600q0 -150 -50 -200t-200 -50l-50 -1q-100 2 -150 101v-350h-250zM450 500v600h-200v-600h200z" />
    <glyph glyph-name="ydieresis" unicode="&#xff;" horiz-adv-x="850" 
d="M450 1199h250v-1349q0 -149 -50.5 -199.5t-199.5 -51.5l-200 2q-149 0 -199.5 49t-50.5 200l250 125v-124l200 -1v450l-450 -200v1100h250v-699l200 66v632zM25 1500h250v-250h-250v250zM425 1500h250v-250h-250v250z" />
    <glyph glyph-name="dotlessi" unicode="&#x131;" horiz-adv-x="400" 
d="M0 1075l250 125v-1200h-250v1075z" />
    <glyph glyph-name="circumflex" unicode="&#x2c6;" horiz-adv-x="800" 
d="M325 1775l-75 -75h-250l200 250h250l200 -250h-250z" />
    <glyph glyph-name="caron" unicode="&#x2c7;" horiz-adv-x="800" 
d="M400 1950h250l-200 -250h-250l-200 250h250l75 -75z" />
    <glyph glyph-name="uni02C9" unicode="&#x2c9;" horiz-adv-x="800" 
d="M0 1950h650v-250h-650v250z" />
    <glyph glyph-name="breve" unicode="&#x2d8;" horiz-adv-x="1229" 
d="M263 1619h61q21 -88 90.5 -128.5t200.5 -40.5q130 0 198.5 40t89.5 129h61q-24 -160 -113 -242t-236 -82t-237 82.5t-115 241.5z" />
    <glyph glyph-name="dotaccent" unicode="&#x2d9;" horiz-adv-x="400" 
d="M0 1950h250v-250h-250v250z" />
    <glyph glyph-name="ring" unicode="&#x2da;" horiz-adv-x="400" 
d="M0 1950h250v-250h-250v250z" />
    <glyph glyph-name="ogonek" unicode="&#x2db;" horiz-adv-x="600" 
d="M0 150l250 -125v-174l200 1v-250l-200 -2q-149 1 -199.5 51.5t-50.5 199.5v299z" />
    <glyph glyph-name="tilde" unicode="&#x2dc;" 
d="M500 1650q-100 0 -200 100l-50 -100h-250l100 250q50 100 200 100q100 0 150 -100l50 100h250l-100 -250q-51 -100 -150 -100z" />
    <glyph glyph-name="hungarumlaut" unicode="&#x2dd;" horiz-adv-x="800" 
d="M0 1925l250 125v-375h-250v250zM400 1925l250 125v-375h-250v250z" />
    <glyph glyph-name="endash" unicode="&#x2013;" horiz-adv-x="750" 
d="M0 800l600 300v-299l-600 -301v300z" />
    <glyph glyph-name="emdash" unicode="&#x2014;" horiz-adv-x="950" 
d="M0 701l800 399v-299l-800 -400v300z" />
    <glyph glyph-name="quoteleft" unicode="&#x2018;" horiz-adv-x="400" 
d="M0 1600h250v-375l-250 125v250z" />
    <glyph glyph-name="quoteright" unicode="&#x2019;" horiz-adv-x="400" 
d="M250 1350l-250 -125v375h250v-250z" />
    <glyph glyph-name="quotesinglbase" unicode="&#x201a;" horiz-adv-x="400" 
d="M250 0l-250 -125v375h250v-250z" />
    <glyph glyph-name="quotedblleft" unicode="&#x201c;" horiz-adv-x="750" 
d="M350 1600h250v-375l-250 125v250zM0 1600h250v-375l-250 125v250z" />
    <glyph glyph-name="quotedblright" unicode="&#x201d;" horiz-adv-x="750" 
d="M250 1350l-250 -125v375h250v-250zM600 1350l-250 -125v375h250v-250z" />
    <glyph glyph-name="quotedblbase" unicode="&#x201e;" horiz-adv-x="800" 
d="M250 0l-250 -125v375h250v-250zM650 0l-250 -125v375h250v-250z" />
    <glyph glyph-name="dagger" unicode="&#x2020;" horiz-adv-x="1217" 
d="M583 1226q-10 117 -65 214q-68 121 -68 155q0 59 43 94t115 35q69 0 114 -33t45 -85q0 -39 -66 -165q-56 -102 -66 -215q115 10 212 65q121 69 155 69q59 0 95 -43.5t36 -115.5q0 -68 -33 -113t-87 -45q-39 0 -164 66q-102 55 -214 68q9 -211 132 -332
q-128 -552 -135 -1169h-45q-8 617 -137 1169q122 121 133 332q-115 -12 -214 -66q-121 -68 -154 -68q-59 0 -94.5 43t-35.5 115q0 69 33 114t86 45q38 0 164 -68q102 -55 215 -66z" />
    <glyph glyph-name="daggerdbl" unicode="&#x2021;" horiz-adv-x="1217" 
d="M634 223q112 13 214 69q125 66 164 66q54 0 87 -45t33 -114q0 -72 -36 -115t-95 -43q-34 0 -155 68q-97 55 -212 65q10 -113 66 -215q66 -126 66 -164q0 -53 -45 -86t-114 -33q-72 0 -115 35.5t-43 94.5q0 33 68 154q55 98 65 214q-113 -11 -215 -66q-126 -67 -164 -67
q-53 0 -86 45t-33 113q0 72 35.5 115.5t94.5 43.5q33 0 154 -69q99 -54 214 -66q-11 271 -133 478q122 205 133 476q-115 -12 -214 -66q-121 -68 -154 -68q-59 0 -94.5 43t-35.5 115q0 69 33 114t86 45q38 0 164 -68q102 -55 215 -66q-10 117 -65 214q-68 121 -68 155
q0 59 43 94t115 35q69 0 114 -33t45 -85q0 -39 -66 -165q-56 -102 -66 -215q115 10 212 65q121 69 155 69q59 0 95 -43.5t36 -115.5q0 -68 -33 -113t-87 -45q-39 0 -164 66q-102 55 -214 68q9 -271 132 -476q-123 -207 -132 -478z" />
    <glyph glyph-name="bullet" unicode="&#x2022;" horiz-adv-x="1229" 
d="M259 862q0 147 104.5 250.5t251.5 103.5t250.5 -104t103.5 -250q0 -147 -105 -252t-251 -105q-148 0 -251 104.5t-103 252.5z" />
    <glyph glyph-name="ellipsis" unicode="&#x2026;" horiz-adv-x="1200" 
d="M0 250h250v-250h-250v250zM400 250h250v-250h-250v250zM800 250h250v-250h-250v250z" />
    <glyph glyph-name="guilsinglleft" unicode="&#x2039;" horiz-adv-x="750" 
d="M185 758l415 -208v-300l-600 300v400l600 350v-300z" />
    <glyph glyph-name="guilsinglright" unicode="&#x203a;" horiz-adv-x="750" 
d="M0 1000v300l600 -350v-400l-600 -300v300l415 208z" />
    <glyph glyph-name="fraction" unicode="&#x2044;" horiz-adv-x="950" 
d="M550 1600h250l-550 -1600h-250z" />
    <glyph glyph-name="fraction" unicode="&#x2215;" horiz-adv-x="950" 
d="M550 1600h250l-550 -1600h-250z" />
    <glyph glyph-name="franc" unicode="&#x20a3;" horiz-adv-x="950" 
d="M150 375v1225h650v-250h-400v-449l400 199v-299l-400 -200v-101l200 100v-299l-200 -100v-201h-250v75l-150 -75v300z" />
    <glyph glyph-name="lira" unicode="&#x20a4;" horiz-adv-x="975" 
d="M425 613v-364l400 1v-250h-825v251h175v237l-175 -88v300l175 88v562q0 149 50.5 199.5t199.5 51.5l150 -1q149 0 199.5 -49t50.5 -202v-99l-250 -125v225h-150v-437l175 87v-299z" />
    <glyph glyph-name="peseta" unicode="&#x20a7;" horiz-adv-x="1700" 
d="M350 651l-100 -50v-601h-250v1600h500q150 0 200 -50q41 -41 48 -151l2 1v-300l200 100v-18q55 20 150 21l200 -2q149 0 199.5 -49t50.5 -202l-250 -125v126l-200 1v-276l450 225v-650q0 -149 -50.5 -199.5t-199.5 -51.5l-200 3q-95 0 -150 20v-21l-200 -2
q-149 1 -199.5 51.5t-50.5 199.5v424l-150 -75v51zM850 851l-100 -50v-550l100 1l250 125v-126h200v298l-450 -248v550zM500 1350h-250v-449l250 124v325z" />
    <glyph glyph-name="Euro" unicode="&#x20ac;" 
d="M250 625v-376h250v176l250 125v-300q0 -150 -50 -200t-200 -50h-250q-150 0 -200 50t-50 199v1101q0 149 50.5 199.5t199.5 51.5l250 -1q149 0 199.5 -49t50.5 -202v-99l-250 -125v225h-250v-425l350 175v-299z" />
    <glyph glyph-name="afii61352" unicode="&#x2116;" horiz-adv-x="1750" 
d="M0 1600h250v-150q50 150 150 150h100q150 0 200 -75t50 -175v-1350h-250v1350h-250v-1350h-250v1600zM1350 1600q149 -1 199.5 -50t50.5 -202v-698q0 -150 -50 -200t-200 -50h-200q-150 0 -200 50t-50 199v700q0 149 50.5 199.5t199.5 51.5h200zM1350 649v700h-200v-700
h200zM1600 250v-250h-700v250h700z" />
    <glyph glyph-name="trademark" unicode="&#x2122;" horiz-adv-x="1796" 
 />
    <glyph glyph-name="partialdiff" unicode="&#x2202;" horiz-adv-x="1216" 
d="M278 644q0 -49 6 -94q17 -147 74 -276.5t142 -197.5q77 -64 154 -64q7 0 15 1q84 6 153 84.5t97 215.5q19 88 19 179q0 50 -6 102q-17 146 -75 277.5t-143 198.5q-78 60 -154 60h-13q-82 -6 -151.5 -83t-98.5 -214q-19 -101 -19 -189zM1124 572q0 -158 -68 -301
t-191 -222t-257 -79t-257 79t-191 222t-68 301t69.5 302t193 222t253.5 78q131 0 254 -78q35 -22 65 -50q-101 282 -280 452.5t-392 186.5v66q367 0 618 -342t251 -837z" />
    <glyph glyph-name="Delta" unicode="&#x2206;" horiz-adv-x="1297" 
d="M617 1434l-488 -1286h962zM656 1721l631 -1721h-1280z" />
    <glyph glyph-name="product" unicode="&#x220f;" horiz-adv-x="1818" 
d="M614 1661q-123 0 -123 -282v-1537q0 -282 123 -282h116v-62h-672v62h115q124 0 124 282v1537q0 282 -124 282h-115v60h1703v-60h-117q-122 0 -122 -282v-1537q0 -282 122 -282h117v-60h-672v60h115q124 0 124 282v1537q0 282 -124 282h-590z" />
    <glyph glyph-name="summation" unicode="&#x2211;" horiz-adv-x="1447" 
d="M1271 658l-946 -1097h762q156 0 227 218h59l-124 -278h-1105v60q74 0 127 63l796 938l-796 1030q-53 69 -127 69v60h1105l124 -279h-59q-71 219 -227 219h-582z" />
    <glyph glyph-name="minus" unicode="&#x2212;" horiz-adv-x="750" 
d="M0 800l600 300v-299l-600 -301v300z" />
    <glyph glyph-name="radical" unicode="&#x221a;" horiz-adv-x="1216" 
d="M217 0l-197 431l89 42l102 -222l873 1764h180v-72h-86z" />
    <glyph glyph-name="infinity" unicode="&#x221e;" horiz-adv-x="1217" 
d="M527 906q-18 124 -89 160q-55 26 -101 26q-14 0 -28 -2q-58 -12 -110.5 -53.5t-78.5 -101.5q-24 -55 -24 -108v-10q2 -57 32.5 -106.5t86.5 -69.5q34 -13 73 -13q19 0 39 3q57 12 109 52.5t91 222.5zM559 824q14 -115 113 -183q83 -58 147 -58q14 0 26 3q74 14 140.5 62
t101.5 121q31 65 31 130v13q-2 72 -42.5 130t-109.5 82q-45 16 -91 16q-27 0 -53 -5q-81 -11 -153 -74.5t-110 -236.5zM540 992q11 42 25 83q41 106 114 164.5t154 58.5q80 0 153 -57.5t114 -162t41 -218.5t-41 -218t-114 -162t-153 -58q-81 0 -154 59t-114 163
q-14 42 -25 84q-6 -25 -15 -49q-32 -87 -88.5 -135t-118.5 -48q-63 0 -120.5 49t-88 136t-30.5 179t30.5 179.5t88 136.5t120.5 49q62 0 118.5 -48t88.5 -134q9 -25 15 -51z" />
    <glyph glyph-name="integral" unicode="&#x222b;" horiz-adv-x="798" 
d="M-14 -337q-72 0 -72 35v190h43q1 -51 41.5 -77t76.5 -26h1q98 0 138 195q38 194 48 379l84 881l10 74q32 286 161.5 515.5t280.5 229.5q72 0 72 -35v-190h-43q-1 51 -42 77t-75 26q-86 0 -140 -186.5t-58 -436.5l-88 -920q-24 -278 -156.5 -504.5t-281.5 -226.5z" />
    <glyph glyph-name="approxequal" unicode="&#x2248;" horiz-adv-x="1217" 
d="M1108 1264v-188q-76 -86 -146.5 -116.5t-139.5 -30.5q-72 0 -213 58t-212 58q-61 0 -128.5 -33.5t-155.5 -134.5v187q77 88 147.5 119t136.5 31q77 0 218 -59t207 -59q63 0 130.5 33.5t155.5 134.5zM1108 846v-187q-76 -87 -146.5 -117.5t-139.5 -30.5q-72 0 -213 58.5
t-212 58.5q-61 0 -128.5 -34t-155.5 -134v187q77 87 147.5 118.5t136.5 31.5q77 0 218 -59.5t207 -59.5q63 0 130.5 33.5t155.5 134.5z" />
    <glyph glyph-name="lessequal" unicode="&#x2264;" horiz-adv-x="1216" 
d="M1112 1289l-750 -431l750 -426v-200l-1008 577v99l1008 581v-200zM104 1v168h1007l1 -1v-167h-1008z" />
    <glyph glyph-name="greaterequal" unicode="&#x2265;" horiz-adv-x="1216" 
d="M104 1489l1008 -581v-99l-1008 -577v200l750 426l-750 431v200zM104 2v168h1007l1 -1v-167h-1008z" />
    <glyph glyph-name="uniF001" unicode="&#xf001;" horiz-adv-x="1288" 
 />
    <glyph glyph-name="uniF001" unicode="&#xfb01;" horiz-adv-x="1288" 
 />
    <glyph glyph-name="uniF002" unicode="&#xf002;" horiz-adv-x="1297" 
 />
    <glyph glyph-name="uniF002" unicode="&#xfb02;" horiz-adv-x="1297" 
 />
  </font>
</defs>
</svg>
