<?xml version="1.0" standalone="no"?>
<!DOCTYPE svg PUBLIC "-//W3C//DTD SVG 1.1//EN" "http://www.w3.org/Graphics/SVG/1.1/DTD/svg11.dtd" >
<svg>
<metadata>
Created by FontForge 20090622 at Tue Aug 20 10:48:02 2013
 By ffonts
Roddenberry &#194;&#169; (Neale Davidson). 2011. All Rights Reserved
</metadata>
<defs>
<font id="Roddenberry-Italic" horiz-adv-x="900" >
  <font-face 
    font-family="Roddenberry"
    font-weight="400"
    font-style="italic"
    font-stretch="normal"
    units-per-em="2048"
    panose-1="2 0 5 0 0 0 0 9 0 0"
    ascent="1638"
    descent="-410"
    x-height="1200"
    cap-height="1600"
    bbox="-168 -502 2222 2059"
    underline-thickness="150"
    underline-position="-142"
    slope="-15"
    unicode-range="U+0020-U+F002"
  />
<missing-glyph horiz-adv-x="1650" 
d="M0 200v1100q0 200 200 200h1100q200 0 200 -200v-1100q0 -200 -200 -200h-1100q-200 0 -200 200zM1475 201v1099q0 175 -175 175h-1100q-174 0 -175 -175v-1100q1 -175 175 -175h1101q174 0 174 176z" />
    <glyph glyph-name=".notdef" horiz-adv-x="1650" 
d="M0 200v1100q0 200 200 200h1100q200 0 200 -200v-1100q0 -200 -200 -200h-1100q-200 0 -200 200zM1475 201v1099q0 175 -175 175h-1100q-174 0 -175 -175v-1100q1 -175 175 -175h1101q174 0 174 176z" />
    <glyph glyph-name=".null" horiz-adv-x="0" 
 />
    <glyph glyph-name="nonmarkingreturn" horiz-adv-x="610" 
 />
    <glyph glyph-name="space" unicode=" " horiz-adv-x="712" 
 />
    <glyph glyph-name="space" unicode="&#xa0;" horiz-adv-x="712" 
 />
    <glyph glyph-name="exclam" unicode="!" horiz-adv-x="400" 
d="M429 1600h250l-322 -1200h-250zM67 250h250l-67 -250h-250z" />
    <glyph glyph-name="quotedbl" unicode="&#x22;" horiz-adv-x="750" 
d="M611 1350l-283 -125l100 375h250zM961 1350l-283 -125l100 375h250z" />
    <glyph glyph-name="numbersign" unicode="#" horiz-adv-x="1250" 
d="M375 562l41 151l-255 -113l80 300l255 112l91 338h250l-58 -213l171 75l90 338h250l-57 -213l255 112l-80 -299l-255 -112l-41 -151l255 112l-80 -299l-255 -112l-90 -338h-250l57 213l-85 -38l-85 -37l-91 -338h-250l57 213l-255 -113l80 300zM699 838l-40 -151l170 75
l40 151l-85 -38z" />
    <glyph glyph-name="dollar" unicode="$" 
d="M652 1501l27 99h250l-27 -100q149 0 186.5 -49t-3.5 -201l-284 -125l34 125h-250l-101 -375l567 250l-207 -775q-40 -149 -104 -199.5t-214 -51.5l-26 -99h-250l27 100q-149 0 -186.5 49t3.5 202l283 125l-33 -126h250l107 399l-567 -249l201 750q40 149 104 199.5
t213 51.5z" />
    <glyph glyph-name="percent" unicode="%" horiz-adv-x="1350" 
d="M645 1100l40 151l-100 -1l-41 -151zM1044 350l40 151l-100 -1l-40 -151zM732 871q-59 -20 -154 -20l-100 -1q-150 0 -186.5 50t2.5 199l41 151q40 149 104 199.5t213 51.5l100 1q149 -1 186.5 -50t-3.5 -202l-23 -86l267 436h250l-532 -870q60 20 154 21l100 1
q149 -1 186.5 -50t-3.5 -202l-40 -149q-40 -150 -103.5 -200t-213.5 -50l-100 -1q-150 0 -186.5 50t3.5 199l23 87l-267 -436h-250z" />
    <glyph glyph-name="ampersand" unicode="&#x26;" horiz-adv-x="950" 
d="M931 675l-114 -425q-40 -150 -103.5 -200t-213.5 -50h-250q-150 0 -180 75t-3 175l94 350q34 126 121 175q-67 25 -41 125l121 450q40 150 103.5 200t213.5 50h250q150 0 186.5 -50t-3.5 -200l-12 -43l-274 -89l36 132h-250l-121 -449l85 37l-80 -299l-85 -38l-94 -351
h250l80 300l-113 -50l80 300l453 199l-80 -299z" />
    <glyph glyph-name="quotesingle" unicode="'" horiz-adv-x="400" 
d="M611 1350l-283 -125l100 375h250z" />
    <glyph glyph-name="parenleft" unicode="(" horiz-adv-x="650" 
d="M447 -201h-250q-100 1 -155 76t-28 175l402 1500q26 99 121.5 174.5t195.5 75.5h250l-67 -250h-250l-402 -1501h250z" />
    <glyph glyph-name="parenright" unicode=")" horiz-adv-x="650" 
d="M482 1800h250q100 -1 155 -76t28 -176l-402 -1499q-27 -100 -122 -175t-195 -75h-250l67 249h250l402 1502h-250z" />
    <glyph glyph-name="asterisk" unicode="*" horiz-adv-x="850" 
d="M822 1050l79 -300h-250l-49 189l-151 -189h-250l239 300h-159l67 250h159l-78 300h250l49 -189l151 189h250l-240 -300h159l-67 -250h-159z" />
    <glyph glyph-name="plus" unicode="+" horiz-adv-x="850" 
d="M389 613l-255 -113l80 300l255 112l91 338h250l-57 -213l255 112l-80 -299l-255 -112l-91 -338h-250z" />
    <glyph glyph-name="comma" unicode="," horiz-adv-x="400" 
d="M250 0l-283 -125l100 375h250z" />
    <glyph glyph-name="hyphen" unicode="-" horiz-adv-x="750" 
d="M214 800l681 300l-80 -299l-681 -301z" />
    <glyph glyph-name="hyphen" unicode="&#xad;" horiz-adv-x="750" 
d="M214 800l681 300l-80 -299l-681 -301z" />
    <glyph glyph-name="period" unicode="." horiz-adv-x="400" 
d="M67 250h250l-67 -250h-250z" />
    <glyph glyph-name="slash" unicode="/" horiz-adv-x="950" 
d="M979 1600h250l-979 -1600h-250z" />
    <glyph glyph-name="zero" unicode="0" 
d="M929 1600q149 0 186.5 -49t-3.5 -202l-295 -1099q-40 -150 -103.5 -200t-213.5 -50h-250q-150 0 -186.5 50t3.5 199l295 1101q40 149 104 199.5t213 51.5zM567 249l295 1101h-250l-295 -1101h250z" />
    <glyph glyph-name="one" unicode="1" horiz-adv-x="666" 
d="M952 1625l-435 -1625h-240l333 1236l-232 -103l69 260z" />
    <glyph glyph-name="two" unicode="2" 
d="M0 0l181 675q27 101 140 150l454 200l87 325h-250l-47 -175l-284 -125l81 300q40 150 103.5 200t213.5 50h250q150 0 186.5 -50t-3.5 -200l-94 -350q-40 -150 -153 -199l-454 -201l-94 -350h500l-67 -250h-750z" />
    <glyph glyph-name="three" unicode="3" 
d="M524 651l81 300l169 74l88 325h-250l-47 -175l-284 -125l81 300q40 150 103.5 200t213.5 50h250q150 0 186.5 -50t-3.5 -200l-94 -350q-34 -125 -118 -180q63 -21 37 -120l-120 -450q-40 -150 -103.5 -200t-213.5 -50h-250q-150 0 -180 75t-3 175l40 150l283 125
l-73 -275h250l127 476z" />
    <glyph glyph-name="four" unicode="4" 
d="M127 475l301 1125h250l-187 -700l283 125l87 325h250l-361 -1350h-250l194 725z" />
    <glyph glyph-name="five" unicode="5" 
d="M317 249h250l127 476l-567 -250l302 1125h750l-67 -250h-500l-121 -450l567 250l-241 -900q-40 -150 -103.5 -200t-213.5 -50h-250q-150 0 -186.5 50t3.5 199l20 76l284 125z" />
    <glyph glyph-name="six" unicode="6" 
d="M317 249h250l101 376l-284 -125zM1032 1050l-215 -800q-40 -150 -103.5 -200t-213.5 -50h-250q-150 0 -186.5 50t3.5 199l295 1101q40 149 104 199.5t213 51.5l250 -1q149 0 186.5 -49t-3.5 -202l-27 -99l-283 -125l60 225h-250l-147 -550z" />
    <glyph glyph-name="seven" unicode="7" 
d="M1179 1600l-161 -600q-40 -150 -153 -199l-284 -126l-181 -675h-250l201 750q27 101 140 150l284 125l87 325h-500l67 250h750z" />
    <glyph glyph-name="eight" unicode="8" 
d="M862 1350h-250l-121 -449l283 124zM694 726l-283 -125l-94 -351h250zM937 700l-120 -450q-40 -150 -103.5 -200t-213.5 -50h-250q-150 0 -180 75t-3 175l94 350q34 126 121 175q-67 25 -41 125l121 450q40 150 103.5 200t213.5 50h250q150 0 186.5 -50t-3.5 -200
l-94 -350q-34 -125 -118 -180q63 -21 37 -120z" />
    <glyph glyph-name="nine" unicode="9" 
d="M863 1352h-250l-101 -376l283 125zM148 551l214 800q41 150 104 200t213 50h250q150 0 187 -50t-3 -199l-295 -1101q-40 -149 -104 -199.5t-214 -51.5l-249 1q-149 0 -186.5 49t3.5 202l27 99l283 125l-60 -225h250l147 550z" />
    <glyph glyph-name="colon" unicode=":" horiz-adv-x="400" 
d="M67 250h250l-67 -250h-250zM201 750h250l-67 -250h-250z" />
    <glyph glyph-name="semicolon" unicode=";" horiz-adv-x="400" 
d="M201 750h250l-67 -250h-250zM250 0l-283 -125l100 375h250z" />
    <glyph glyph-name="semicolon" unicode="&#x37e;" horiz-adv-x="400" 
d="M201 750h250l-67 -250h-250zM250 0l-283 -125l100 375h250z" />
    <glyph glyph-name="less" unicode="&#x3c;" horiz-adv-x="750" 
d="M388 758l359 -208l-80 -300l-520 300l107 400l694 350l-80 -300z" />
    <glyph glyph-name="equal" unicode="=" horiz-adv-x="750" 
d="M147 550l681 300l-80 -299l-681 -301zM268 1000l680 300l-80 -299l-680 -301z" />
    <glyph glyph-name="greater" unicode="&#x3e;" horiz-adv-x="750" 
d="M627 792l-359 208l80 300l520 -300l-107 -400l-694 -350l80 300z" />
    <glyph glyph-name="question" unicode="?" 
d="M929 1600q150 0 186.5 -50t-3.5 -200l-94 -350q-40 -150 -153 -199l-171 -76l-87 -325h-250l107 400q27 101 141 150l170 75l87 325h-250l-47 -175l-284 -125l81 300q40 150 103.5 200t213.5 50h250zM317 250h250l-67 -250h-250z" />
    <glyph glyph-name="at" unicode="@" horiz-adv-x="1150" 
d="M924 650l80 300h-150l-80 -300h150zM1107 400h-250l27 100q-77 -99 -177 -100q-150 0 -186.5 50t3.5 200l80 300q41 150 104 200t213 50q100 0 124 -100l67 250h-500l-295 -1100h750l-67 -250h-750q-100 0 -155 75t-28 175l295 1100q26 100 121.5 175t195.5 75h500
q100 0 154.5 -75t28.5 -175z" />
    <glyph glyph-name="A" unicode="A" 
d="M612 1350l-121 -450l284 125l87 325h-250zM465.5 1550q63.5 50 213.5 50h250q150 0 186.5 -50t-3.5 -200l-362 -1350h-250l194 725l-283 -125l-161 -600h-250l362 1350q40 150 103.5 200z" />
    <glyph glyph-name="B" unicode="B" 
d="M862 1350h-250l-121 -449l284 124zM695 726l-284 -125l-94 -351h250zM938 700l-121 -450q-40 -150 -103.5 -200t-213.5 -50h-500l429 1600h500q150 0 186.5 -50t-3.5 -200l-94 -350q-34 -125 -118 -180q63 -21 38 -120z" />
    <glyph glyph-name="C" unicode="C" 
d="M614 425l284 125l-81 -300q-40 -150 -103.5 -200t-213.5 -50h-250q-150 0 -186.5 50t3.5 199l295 1101q40 149 104 199.5t213 51.5l250 -1q149 0 186.5 -49t-3.5 -202l-27 -99l-283 -125l60 225h-250l-295 -1101h250z" />
    <glyph glyph-name="D" unicode="D" 
d="M929 1600q149 0 186.5 -49t-3.5 -202l-295 -1099q-40 -150 -103.5 -200t-213.5 -50l-500 -1l429 1601h500zM862 1349h-250l-295 -1100l250 1z" />
    <glyph glyph-name="E" unicode="E" horiz-adv-x="800" 
d="M429 1600h650l-67 -250h-400l-121 -449l454 199l-80 -299l-454 -200l-94 -351h400l-68 -250h-649z" />
    <glyph glyph-name="F" unicode="F" horiz-adv-x="800" 
d="M429 1600h650l-67 -250h-400l-121 -449l454 199l-80 -299l-454 -200l-161 -601h-250z" />
    <glyph glyph-name="G" unicode="G" 
d="M817 250q-40 -150 -103.5 -200t-213.5 -50h-250q-150 0 -186.5 50t3.5 199l295 1101q40 149 104 199.5t213 51.5l250 -1q149 0 186.5 -49t-3.5 -202l-27 -99l-283 -125l60 225h-250l-295 -1101h250l101 376l-170 -75l80 300l454 200z" />
    <glyph glyph-name="H" unicode="H" 
d="M411 600l-161 -600h-250l429 1600h250l-188 -700l284 125l154 575h250l-429 -1600h-250l194 725z" />
    <glyph glyph-name="I" unicode="I" horiz-adv-x="400" 
d="M429 1600h250l-429 -1600h-250z" />
    <glyph glyph-name="J" unicode="J" 
d="M1179 1600l-361 -1349q-40 -149 -104 -199.5t-214 -51.5l-249 1q-149 0 -186.5 49t3.5 202l27 99l283 125l-60 -225h250l361 1349h250z" />
    <glyph glyph-name="K" unicode="K" 
d="M518 1000l411 600h250l-487 -711l58 -889h-250l-36 556l-107 -156l-107 -400h-250l429 1600h250z" />
    <glyph glyph-name="L" unicode="L" horiz-adv-x="750" 
d="M429 1601h250l-362 -1351h349l-67 -250h-599z" />
    <glyph glyph-name="M" unicode="M" horiz-adv-x="1300" 
d="M984 1525q45 75 145 75h200q150 0 186.5 -50t-3.5 -199l-362 -1351h-250l362 1351h-200l-362 -1351h-250l362 1351h-200l-362 -1351h-250l362 1350q40 150 103.5 200t213.5 50h200q100 0 105 -75z" />
    <glyph glyph-name="N" unicode="N" 
d="M429 1600h250l-40 -150q90 150 190 150h100q150 0 180 -75t3 -175l-362 -1350h-250l362 1350h-250l-362 -1350h-250z" />
    <glyph glyph-name="O" unicode="O" 
d="M929 1600q149 0 186.5 -49t-3.5 -202l-295 -1099q-40 -150 -103.5 -200t-213.5 -50h-250q-150 0 -186.5 50t3.5 199l295 1101q40 149 104 199.5t213 51.5zM567 249l295 1101h-250l-295 -1101h250z" />
    <glyph glyph-name="P" unicode="P" 
d="M865 801l-454 -200l-161 -601h-250l429 1600h500q150 0 186.5 -50t-3.5 -200l-94 -350q-40 -150 -153 -199zM862 1350h-250l-121 -449l284 124z" />
    <glyph glyph-name="Q" unicode="Q" 
d="M634 500l228 850h-250l-295 -1101h121l-44 101zM544 1q-21 -1 -44 -1h-250q-150 0 -186.5 50t3.5 199l295 1101q40 149 104 199.5t213 51.5l250 -1q149 0 186.5 -49t-3.5 -202l-295 -1099q-15 -56 -33 -97l66 -153l-240 -150z" />
    <glyph glyph-name="R" unicode="R" 
d="M862 1350h-250l-121 -449l284 124zM413 602l-2 -1l-161 -601h-250l429 1600h500q150 0 186.5 -50t-3.5 -200l-94 -350q-40 -150 -153 -199l-217 -95l102 -706h-250z" />
    <glyph glyph-name="S" unicode="S" 
d="M362 1350q40 149 104 199.5t213 51.5l250 -1q149 0 186.5 -49t-3.5 -202l-27 -99l-283 -125l60 225h-250l-127 -475l567 250l-234 -874q-40 -149 -104 -199.5t-214 -51.5l-249 1q-149 0 -186.5 49t3.5 202l27 99l283 125l-60 -225h250l133 498l-567 -249z" />
    <glyph glyph-name="T" unicode="T" horiz-adv-x="950" 
d="M275 0l362 1350l-276 -1l68 251h810l-68 -251h-285l-361 -1349h-250z" />
    <glyph glyph-name="U" unicode="U" 
d="M1179 1600l-362 -1350q-40 -150 -103.5 -200t-213.5 -50h-250q-150 0 -186.5 50t3.5 199l362 1351h250l-362 -1351h250l362 1351h250z" />
    <glyph glyph-name="V" unicode="V" 
d="M634 500l295 1100h250l-335 -1250l-844 -350l429 1600h250l-322 -1199z" />
    <glyph glyph-name="W" unicode="W" horiz-adv-x="1300" 
d="M595 75q-45 -75 -145 -75h-200q-150 0 -186.5 50t3.5 199l362 1351h250l-362 -1351h200l362 1351h250l-362 -1351h200l362 1351h250l-362 -1350q-40 -150 -103.5 -200t-213.5 -50h-200q-100 0 -105 75z" />
    <glyph glyph-name="X" unicode="X" horiz-adv-x="950" 
d="M489 800l-60 800h250l33 -436l267 436h250l-490 -800l61 -800h-250l-33 436l-267 -436h-250z" />
    <glyph glyph-name="Y" unicode="Y" 
d="M929 1600h250l-361 -1349q-40 -149 -104 -199.5t-214 -51.5l-249 1q-149 0 -186.5 49t3.5 202l27 99l283 125l-60 -225h250l156 582l-563 -233l268 1000h250l-160 -599l276 99z" />
    <glyph glyph-name="Z" unicode="Z" 
d="M837 1350h-475l67 250h750l-67 -250l-769 -1101l474 1l-67 -250h-750l67 250z" />
    <glyph glyph-name="bracketleft" unicode="[" horiz-adv-x="650" 
d="M446 -201h-500l536 2002h500l-66 -250l-251 -1l-402 -1501h250z" />
    <glyph glyph-name="backslash" unicode="\" horiz-adv-x="950" 
d="M429 1600h250l121 -1600h-250z" />
    <glyph glyph-name="bracketright" unicode="]" horiz-adv-x="650" 
d="M14 49h250l402 1501l-251 1l68 250h500l-536 -2002h-500z" />
    <glyph glyph-name="asciicircum" unicode="^" horiz-adv-x="800" 
d="M801 1775l-95 -75h-250l267 250h250l133 -250h-250z" />
    <glyph glyph-name="underscore" unicode="_" horiz-adv-x="1350" 
d="M1133 -250h-1200l67 250l1200 -1z" />
    <glyph glyph-name="grave" unicode="`" horiz-adv-x="400" 
d="M549 2050h250l-100 -375l-217 125z" />
    <glyph glyph-name="a" unicode="a" horiz-adv-x="850" 
d="M658 775l47 176h-200l-47 -176l-283 -125l80 300q40 150 103.5 200t213.5 50h200q150 0 186.5 -50t-3.5 -199l-255 -951h-250l27 100q-76 -99 -174 -99h-52q-149 0 -186 49q-38 49 2 200l54 200q27 100 140 150zM351 375l-33 -124h200l60 224z" />
    <glyph glyph-name="b" unicode="b" horiz-adv-x="850" 
d="M0 0l395 1475l284 125l-134 -500q77 100 177 100h50q150 0 186.5 -50t-3.5 -200l-188 -700q-40 -150 -103.5 -200t-213.5 -50l-50 -1q-100 2 -123 101l-27 -100h-250zM517 250l188 700h-200l-188 -700h200z" />
    <glyph glyph-name="c" unicode="c" horiz-adv-x="850" 
d="M564 425l284 125l-81 -300q-40 -150 -103.5 -200t-213.5 -50h-200q-150 0 -186.5 50t3.5 199l187 700q40 149 104 199.5t214 51.5l199 -1q149 0 186.5 -49t-3.5 -202l-26 -99l-284 -125l60 225h-200l-187 -700h200z" />
    <glyph glyph-name="d" unicode="d" horiz-adv-x="850" 
d="M450 0l27 100q-77 -99 -177 -101l-50 1q-150 0 -186.5 50t3.5 200l188 700q40 150 103.5 200t213.5 50h50q100 0 123 -100l100 375l284 125l-429 -1600h-250zM517 250l188 700h-200l-188 -700h200z" />
    <glyph glyph-name="e" unicode="e" horiz-adv-x="850" 
d="M364 425l-47 -176h200l47 176l284 125l-81 -300q-40 -150 -103.5 -200t-213.5 -50h-200q-150 0 -186.5 50t3.5 199l187 700q40 149 104 199.5t214 51.5l199 -1q149 0 187 -49q37 -49 -3 -200l-80 -299zM671 825l33 124h-200l-60 -224z" />
    <glyph glyph-name="f" unicode="f" horiz-adv-x="750" 
d="M588 701l-188 -701h-250l154 575l-170 -75l80 300l170 75l127 474q40 149 104 199.5t214 51.5l199 -2l-67 -250l-200 1l-93 -349l227 100l-80 -299z" />
    <glyph glyph-name="g" unicode="g" horiz-adv-x="850" 
d="M517 250l188 700h-200l-188 -700h200zM477 100q-76 -99 -177 -101l-50 1q-150 0 -186.5 50t3.5 200l188 700q40 150 103.5 200t213.5 50h50q100 0 123 -100l27 100h250l-362 -1349q-39 -149 -103.5 -199.5t-213.5 -51.5l-199 2q-149 0 -186.5 49t2.5 200l284 125
l-33 -124l199 -1z" />
    <glyph glyph-name="h" unicode="h" horiz-adv-x="850" 
d="M545 1100q77 100 177 100h50q150 0 186.5 -50t-3.5 -200l-255 -950h-250l255 950h-200l-255 -950h-250l395 1475l284 125z" />
    <glyph glyph-name="i" unicode="i" horiz-adv-x="400" 
d="M288 1075l284 125l-322 -1200h-250zM328 1225l67 250l284 125l-67 -250z" />
    <glyph glyph-name="j" unicode="j" horiz-adv-x="600" 
d="M528 1225l67 250l283 125l-67 -250zM410 -149q-40 -149 -104 -199.5t-214 -51.5l-199 2l67 250l200 -1l328 1224l283 125z" />
    <glyph glyph-name="k" unicode="k" horiz-adv-x="850" 
d="M458 777l314 423h250l-458 -616l136 -584h-250l-76 327l-57 -77l-67 -250h-250l395 1475l284 125z" />
    <glyph glyph-name="l" unicode="l" horiz-adv-x="400" 
d="M395 1475l284 125l-429 -1600h-250z" />
    <glyph glyph-name="m" unicode="m" horiz-adv-x="1300" 
d="M955 950l-255 -950h-250l255 950h-200l-255 -950h-250l322 1200h250l-27 -100q77 100 177 100h50q150 0 223 -100q77 100 177 100h50q100 0 154.5 -75t28.5 -175l-255 -950h-250l255 950h-200z" />
    <glyph glyph-name="n" unicode="n" horiz-adv-x="850" 
d="M322 1200h250l-27 -100q77 100 177 100h50q150 0 186.5 -50t-3.5 -200l-255 -950h-250l255 950h-200l-255 -950h-250z" />
    <glyph glyph-name="o" unicode="o" horiz-adv-x="850" 
d="M772 1200q148 -1 185.5 -50t-3.5 -202l-187 -698q-40 -150 -103.5 -200t-213.5 -50h-200q-150 0 -186.5 50t3.5 199l187 700q40 149 104 199.5t214 51.5h200zM517 249l187 700h-200l-187 -700h200z" />
    <glyph glyph-name="p" unicode="p" horiz-adv-x="850" 
d="M-107 -400l429 1600h250l-27 -100q77 100 177 100h50q150 0 186.5 -50t-3.5 -200l-188 -700q-40 -150 -103.5 -200t-213.5 -50l-50 -1q-100 2 -123 101l-134 -500h-250zM517 250l188 700h-200l-188 -700h200z" />
    <glyph glyph-name="q" unicode="q" horiz-adv-x="850" 
d="M343 -400l134 500q-77 -99 -177 -101l-50 1q-150 0 -186.5 50t3.5 200l188 700q40 150 103.5 200t213.5 50h50q100 0 123 -100l27 100h250l-429 -1600h-250zM517 250l188 700h-200l-188 -700h200z" />
    <glyph glyph-name="r" unicode="r" horiz-adv-x="850" 
d="M322 1200h250l-27 -100q77 100 177 100h50q150 0 186.5 -50t-3.5 -200l-14 -50l-283 -125l47 175h-200l-255 -950h-250z" />
    <glyph glyph-name="s" unicode="s" horiz-adv-x="850" 
d="M255 951q40 149 104 199.5t213 51.5l200 -2q149 0 186 -49t-4 -202l-283 -125l34 126l-200 1l-74 -276l510 225l-174 -650q-40 -149 -104 -199.5t-213 -51.5l-199 3q-149 0 -186.5 49t2.5 200l284 125l-34 -126h200l80 298l-516 -248z" />
    <glyph glyph-name="t" unicode="t" horiz-adv-x="750" 
d="M695 1100l227 100l-80 -299l-227 -100l-148 -550l201 1l-67 -250l-201 -2q-149 1 -185.5 51.5t2.5 199.5l114 424l-170 -75l80 300l170 75l81 300l283 125z" />
    <glyph glyph-name="u" unicode="u" horiz-adv-x="850" 
d="M700 0h-250l27 100q-77 -100 -177 -100h-50q-150 0 -186.5 50t3.5 200l255 950h250l-255 -950h200l255 950h250z" />
    <glyph glyph-name="v" unicode="v" 
d="M634 500l188 700h250l-228 -850l-844 -350l322 1200h250l-215 -799z" />
    <glyph glyph-name="w" unicode="w" horiz-adv-x="1300" 
d="M595 75q-45 -75 -145 -75h-200q-150 0 -186.5 50t3.5 199l255 951h250l-255 -951h200l255 951h250l-255 -951h200l255 951h250l-255 -950q-40 -150 -103.5 -200t-213.5 -50h-200q-100 0 -105 75z" />
    <glyph glyph-name="x" unicode="x" horiz-adv-x="850" 
d="M396 616l-74 584h250l28 -267l172 267h250l-388 -584l66 -616h-225l-40 316l-210 -316h-225z" />
    <glyph glyph-name="y" unicode="y" horiz-adv-x="850" 
d="M771 1199h250l-362 -1349q-39 -149 -103.5 -199.5t-213.5 -51.5l-199 2q-149 0 -186.5 49t2.5 200l284 125l-33 -124l199 -1l121 450l-504 -200l295 1100h250l-187 -699l218 66z" />
    <glyph glyph-name="z" unicode="z" horiz-adv-x="850" 
d="M680 951h-425l67 250h700l-67 -250l-662 -702l474 1l-67 -250h-700l67 250z" />
    <glyph glyph-name="braceleft" unicode="{" horiz-adv-x="725" 
d="M339 49h250l-67 -250h-250q-100 1 -155 76t-28 176l173 647l-84 -37l80 299l85 38l148 552q27 100 122 175t195 75h250l-67 -249h-250l-148 -552q-35 -126 -122 -175q67 -25 42 -125z" />
    <glyph glyph-name="bar" unicode="|" horiz-adv-x="400" 
d="M482 1800l250 1l-576 -2150l-250 -1z" />
    <glyph glyph-name="braceright" unicode="}" horiz-adv-x="725" 
d="M665 1550h-250l67 250h250q100 -1 155 -76t28 -176l-174 -647l85 37l-80 -299l-85 -38l-148 -552q-27 -100 -122 -175t-195 -75h-250l67 249h250l148 552q34 126 122 175q-68 25 -42 125z" />
    <glyph glyph-name="asciitilde" unicode="~" 
d="M942 1650q-100 0 -173 100l-77 -100h-250l167 250q77 100 227 100q100 0 123 -100l77 100h250l-167 -250q-78 -100 -177 -100z" />
    <glyph glyph-name="exclamdown" unicode="&#xa1;" horiz-adv-x="400" 
d="M250 0h-250l322 1200h250zM612 1350h-250l67 250h250z" />
    <glyph glyph-name="cent" unicode="&#xa2;" 
d="M545 1100l27 100h250l-27 -101q149 0 186.5 -49t-3.5 -202l-13 -48l-284 -125l47 174h-250l-134 -500h250l34 126l283 125l-67 -250q-40 -150 -103.5 -200t-213.5 -50l-27 -100h-250l27 100q-150 0 -186.5 50t3.5 199l134 500q40 149 104 199.5t213 51.5z" />
    <glyph glyph-name="sterling" unicode="&#xa3;" horiz-adv-x="975" 
d="M589 613l-97 -364l400 1l-67 -250h-825l67 251h175l64 237l-199 -88l81 300l198 88l151 562q40 149 104 199.5t213 51.5l150 -1q149 0 186 -49t-4 -202l-26 -99l-284 -125l61 225h-150l-117 -437l198 87l-80 -299z" />
    <glyph glyph-name="currency" unicode="&#xa4;" horiz-adv-x="850" 
d="M638 701l54 199h-200l-54 -199h200zM652 1149h12l162 251h250l-180 -269q33 -12 49 -32q37 -49 -4 -202l-53 -197q-40 -150 -104 -200q-24 -19 -59 -30l29 -270h-225l-32 250h-52l-166 -250h-225l173 270q-29 11 -43 30q-36 50 4 199l53 199q40 149 105 200q25 20 64 32
l-34 270h250z" />
    <glyph glyph-name="yen" unicode="&#xa5;" horiz-adv-x="950" 
d="M595 263l-70 -263h-250l37 138l-199 -88l80 300l199 88l40 150l-198 -88l80 300l169 75l-55 725h250l33 -436l267 436h250l-332 -543l98 43l-80 -299l-198 -88l-41 -150l199 87l-80 -299z" />
    <glyph glyph-name="brokenbar" unicode="&#xa6;" horiz-adv-x="400" 
d="M214 800l268 1000l250 1l-234 -876zM417 625l-261 -974l-250 -1l228 850z" />
    <glyph glyph-name="section" unicode="&#xa7;" 
d="M647 549l134 501h-250l-134 -500zM428 1600q40 149 104 199.5t214 51.5l249 -1q149 0 186.5 -49t-3.5 -202l-26 -99l-284 -125l60 225h-250l-80 -299l250 -1q149 -1 187 -50q26 -36 12 -127l4 2l-301 -1125q-40 -149 -104 -199.5t-213 -50.5h-250q-149 0 -186.5 49
t3.5 202l27 99l283 125l-60 -225h250l80 300h-250q-150 1 -186 51q-30 41 -8 150l-2 -1z" />
    <glyph glyph-name="dieresis" unicode="&#xa8;" horiz-adv-x="800" 
d="M523 1950h250l-67 -250h-250zM923 1950h250l-67 -250h-250z" />
    <glyph glyph-name="copyright" unicode="&#xa9;" horiz-adv-x="1100" 
d="M716 712l142 63l-40 -150q-20 -75 -52 -100t-107 -25l-100 -1q-75 0 -93.5 25t1.5 99l148 551q20 74 52 99.5t106 25.5l101 1q75 0 93.5 -24.5t-2.5 -101.5l-13 -49l-142 -63l30 113l-100 -1l-148 -551l101 1zM1129 1600q149 0 186.5 -49t-3.5 -202l-241 -897
q-40 -150 -103.5 -200t-213.5 -50l-450 -1q-150 0 -186.5 50t3.5 199l241 899q40 149 104 199.5t213 51.5h450zM821 451l241 899h-450l-241 -900z" />
    <glyph glyph-name="ordfeminine" unicode="&#xaa;" horiz-adv-x="850" 
d="M765 1175l47 176h-200l-47 -176l-283 -125l80 300q40 150 103.5 200t213.5 50h200q150 0 186.5 -50t-3.5 -199l-255 -951h-250l27 100q-76 -99 -174 -99h-52q-149 0 -186 49q-38 49 2 200l54 200q27 100 140 150zM458 775l-33 -124h200l60 224z" />
    <glyph glyph-name="guillemotleft" unicode="&#xab;" horiz-adv-x="1400" 
d="M388 758l359 -208l-80 -300l-520 300l107 400l694 350l-80 -300zM1038 758l359 -208l-80 -300l-520 300l107 400l694 350l-80 -300z" />
    <glyph glyph-name="logicalnot" unicode="&#xac;" horiz-adv-x="1216" 
d="M350 920h1008l-158 -589l-1 -1h-118l126 470h-889z" />
    <glyph glyph-name="registered" unicode="&#xae;" horiz-adv-x="1100" 
d="M840 1175h-100l-60 -224l117 62zM641 801h-1l-81 -301h-125l215 800h225q75 0 93 -25t-2 -100l-47 -175q-20 -75 -76 -99l-108 -48l50 -353h-125zM1129 1600q149 0 186.5 -49t-3.5 -202l-241 -897q-40 -150 -103.5 -200t-213.5 -50l-450 -1q-150 0 -186.5 50t3.5 199
l241 899q40 149 104 199.5t213 51.5h450zM821 451l241 899h-450l-241 -900z" />
    <glyph glyph-name="macron" unicode="&#xaf;" horiz-adv-x="1200" 
d="M1656 1700h-1200l67 250l1200 -1z" />
    <glyph glyph-name="degree" unicode="&#xb0;" horiz-adv-x="850" 
d="M879 1600q148 -1 185.5 -50t-3.5 -202l-53 -197q-40 -150 -103.5 -200t-213.5 -50h-200q-150 0 -186.5 50t3.5 199l53 199q40 149 104 199.5t214 51.5h200zM758 1150l53 199h-200l-53 -199h200z" />
    <glyph glyph-name="plusminus" unicode="&#xb1;" horiz-adv-x="850" 
d="M456 863l-255 -113l80 300l255 112l91 338h250l-58 -213l255 112l-80 -299l-255 -112l-90 -338h-250zM93 350l794 349l-80 -299l-794 -350z" />
    <glyph glyph-name="uni00B2" unicode="&#xb2;" horiz-adv-x="850" 
d="M107 400l127 475q27 101 140 150l404 200l34 125h-200l-21 -75l-283 -125l54 200q40 150 103.5 200t213.5 50h200q150 0 186.5 -50t-3.5 -200l-41 -150q-40 -150 -153 -199l-404 -201l-40 -150h450l-67 -250h-700z" />
    <glyph glyph-name="uni00B3" unicode="&#xb3;" horiz-adv-x="850" 
d="M527 850l81 300l170 74l33 126h-200l-20 -75l-283 -125l53 200q41 150 104 200t213 50h200q150 0 187 -50t-4 -200l-40 -151q-34 -125 -118 -180q63 -21 38 -120l-67 -249q-40 -150 -103.5 -200t-213.5 -50h-200q-150 0 -180 75t-3 175l13 51l284 125l-47 -176h200
l73 275z" />
    <glyph glyph-name="acute" unicode="&#xb4;" horiz-adv-x="400" 
d="M516 1925l283 125l-100 -375h-250z" />
    <glyph glyph-name="mu" unicode="&#xb5;" horiz-adv-x="850" 
d="M1022 1200l-255 -950q-40 -150 -103.5 -200t-213.5 -50l-50 -1q-100 2 -123 101l-134 -500h-250l429 1600h250l-255 -950h200l255 950h250z" />
    <glyph glyph-name="paragraph" unicode="&#xb6;" horiz-adv-x="1229" 
d="M1577 1722l-23 -84h-152l-439 -1638h-99l439 1638h-199l-439 -1638h-101l238 886q-206 9 -297.5 122.5t-43.5 294.5q51 189 211 304t374 115h531z" />
    <glyph glyph-name="periodcentered" unicode="&#xb7;" horiz-adv-x="400" 
d="M201 750h250l-67 -250h-250z" />
    <glyph glyph-name="periodcentered" unicode="&#x2219;" horiz-adv-x="400" 
d="M201 750h250l-67 -250h-250z" />
    <glyph glyph-name="cedilla" unicode="&#xb8;" horiz-adv-x="600" 
d="M410 -149q-40 -149 -104 -199.5t-214 -51.5l-199 2l67 250l200 -1l46 174l284 125z" />
    <glyph glyph-name="uni00B9" unicode="&#xb9;" horiz-adv-x="600" 
d="M879 1600l-321 -1200h-250l221 825l-225 -92l72 267z" />
    <glyph glyph-name="ordmasculine" unicode="&#xba;" horiz-adv-x="850" 
d="M879 1600q148 -1 185.5 -50t-3.5 -202l-187 -698q-40 -150 -103.5 -200t-213.5 -50h-200q-150 0 -186.5 50t3.5 199l187 700q40 149 104 199.5t214 51.5h200zM624 649l187 700h-200l-187 -700h200z" />
    <glyph glyph-name="guillemotright" unicode="&#xbb;" horiz-adv-x="1400" 
d="M1277 792l-359 208l80 300l520 -300l-107 -400l-694 -350l80 300zM627 792l-359 208l80 300l520 -300l-107 -400l-694 -350l80 300z" />
    <glyph glyph-name="onequarter" unicode="&#xbc;" horiz-adv-x="1550" 
d="M1185 1200h87l-148 -550l227 100l54 200h250l-255 -950h-250l121 450l-511 -225l135 502l-445 -727h-250l245 400h-138l221 825l-224 -92l71 267l504 200l-234 -873l534 873h250z" />
    <glyph glyph-name="onehalf" unicode="&#xbd;" horiz-adv-x="1500" 
d="M445 400h-138l221 825l-224 -92l71 267l504 200l-234 -873l534 873h250l-246 -401q19 1 39 1h200q150 0 186.5 -50t-3.5 -200l-41 -150q-40 -150 -153 -199l-404 -201l-40 -150h450l-67 -250h-700l127 475q27 101 140 150l404 200l34 125h-200l-21 -75l-204 -90
l-480 -785h-250z" />
    <glyph glyph-name="threequarters" unicode="&#xbe;" horiz-adv-x="1650" 
d="M595 401q-18 -1 -38 -1h-200q-150 0 -180 75t-3 175l13 51l284 125l-47 -176h200l73 275l-170 -75l81 300l170 74l33 126h-200l-20 -75l-283 -125l53 200q41 150 104 200t213 50h200q150 0 187 -50t-4 -200l-40 -151q-34 -125 -118 -180q34 -11 43 -45l382 626h250
l-244 -400h37l-147 -550l227 100l53 200h250l-254 -950h-250l120 450l-510 -225l96 357l-356 -582h-250z" />
    <glyph glyph-name="questiondown" unicode="&#xbf;" 
d="M250 0q-150 0 -186.5 50t3.5 200l94 350q40 150 153 199l171 76l87 325h250l-107 -400q-27 -101 -141 -150l-170 -75l-87 -325h250l47 175l284 125l-81 -300q-40 -150 -103.5 -200t-213.5 -50h-250zM862 1350h-250l67 250h250z" />
    <glyph glyph-name="Agrave" unicode="&#xc0;" 
d="M612 1350l-121 -450l284 125l87 325h-250zM465.5 1550q63.5 50 213.5 50h250q150 0 186.5 -50t-3.5 -200l-362 -1350h-250l194 725l-283 -125l-161 -600h-250l362 1350q40 150 103.5 200zM799 2050h250l-100 -375l-217 125z" />
    <glyph glyph-name="Aacute" unicode="&#xc1;" 
d="M612 1350l-121 -450l284 125l87 325h-250zM465.5 1550q63.5 50 213.5 50h250q150 0 186.5 -50t-3.5 -200l-362 -1350h-250l194 725l-283 -125l-161 -600h-250l362 1350q40 150 103.5 200zM766 1925l283 125l-100 -375h-250z" />
    <glyph glyph-name="Acircumflex" unicode="&#xc2;" 
d="M612 1350l-121 -450l284 125l87 325h-250zM465.5 1550q63.5 50 213.5 50h250q150 0 186.5 -50t-3.5 -200l-362 -1350h-250l194 725l-283 -125l-161 -600h-250l362 1350q40 150 103.5 200zM851 1775l-95 -75h-250l267 250h250l133 -250h-250z" />
    <glyph glyph-name="Atilde" unicode="&#xc3;" 
d="M612 1350l-121 -450l284 125l87 325h-250zM465.5 1550q63.5 50 213.5 50h250q150 0 186.5 -50t-3.5 -200l-362 -1350h-250l194 725l-283 -125l-161 -600h-250l362 1350q40 150 103.5 200zM942 1650q-100 0 -173 100l-77 -100h-250l167 250q77 100 227 100q100 0 123 -100
l77 100h250l-167 -250q-78 -100 -177 -100z" />
    <glyph glyph-name="Adieresis" unicode="&#xc4;" 
d="M612 1350l-121 -450l284 125l87 325h-250zM465.5 1550q63.5 50 213.5 50h250q150 0 186.5 -50t-3.5 -200l-362 -1350h-250l194 725l-283 -125l-161 -600h-250l362 1350q40 150 103.5 200zM573 1950h250l-67 -250h-250zM973 1950h250l-67 -250h-250z" />
    <glyph glyph-name="Aring" unicode="&#xc5;" 
d="M612 1350l-121 -450l284 125l87 325h-250zM465.5 1550q63.5 50 213.5 50h250q150 0 186.5 -50t-3.5 -200l-362 -1350h-250l194 725l-283 -125l-161 -600h-250l362 1350q40 150 103.5 200zM773 1950h250l-67 -250h-250z" />
    <glyph glyph-name="AE" unicode="&#xc6;" horiz-adv-x="1300" 
d="M694 725l-283 -125l-161 -600h-250l362 1350q40 150 103.5 200t213.5 50h900l-67 -250h-400l-121 -449l454 199l-80 -299l-454 -200l-94 -351h400l-68 -250h-649zM862 1350h-250l-121 -450l284 125z" />
    <glyph glyph-name="Ccedilla" unicode="&#xc7;" 
d="M250 0q-150 0 -187 50t3 199l295 1101q40 149 104 199.5t214 51.5l249 -1q149 0 186.5 -49t-3.5 -202l-26 -99l-284 -125l60 225h-250l-295 -1101h250l48 176l283 125l-80 -300q-41 -150 -104 -200t-213 -50l-40 -149q-40 -149 -104 -199.5t-214 -51.5l-199 2l67 250
l200 -1z" />
    <glyph glyph-name="Egrave" unicode="&#xc8;" horiz-adv-x="800" 
d="M429 1600h650l-67 -250h-400l-121 -449l454 199l-80 -299l-454 -200l-94 -351h400l-68 -250h-649zM799 2050h250l-100 -375l-217 125z" />
    <glyph glyph-name="Eacute" unicode="&#xc9;" horiz-adv-x="800" 
d="M429 1600h650l-67 -250h-400l-121 -449l454 199l-80 -299l-454 -200l-94 -351h400l-68 -250h-649zM766 1925l283 125l-100 -375h-250z" />
    <glyph glyph-name="Ecircumflex" unicode="&#xca;" horiz-adv-x="800" 
d="M429 1600h650l-67 -250h-400l-121 -449l454 199l-80 -299l-454 -200l-94 -351h400l-68 -250h-649zM801 1775l-95 -75h-250l267 250h250l133 -250h-250z" />
    <glyph glyph-name="Edieresis" unicode="&#xcb;" horiz-adv-x="800" 
d="M429 1600h650l-67 -250h-400l-121 -449l454 199l-80 -299l-454 -200l-94 -351h400l-68 -250h-649zM523 1950h250l-67 -250h-250zM923 1950h250l-67 -250h-250z" />
    <glyph glyph-name="Igrave" unicode="&#xcc;" horiz-adv-x="400" 
d="M429 1600h250l-429 -1600h-250zM549 2050h250l-100 -375l-217 125z" />
    <glyph glyph-name="Iacute" unicode="&#xcd;" horiz-adv-x="400" 
d="M429 1600h250l-429 -1600h-250zM516 1925l283 125l-100 -375h-250z" />
    <glyph glyph-name="Icircumflex" unicode="&#xce;" horiz-adv-x="400" 
d="M429 1600h250l-429 -1600h-250zM601 1775l-95 -75h-250l267 250h250l133 -250h-250z" />
    <glyph glyph-name="Idieresis" unicode="&#xcf;" horiz-adv-x="400" 
d="M429 1600h250l-429 -1600h-250zM323 1950h250l-67 -250h-250zM723 1950h250l-67 -250h-250z" />
    <glyph glyph-name="Eth" unicode="&#xd0;" horiz-adv-x="1100" 
d="M645 726l-128 -477l250 1l294 1099h-250l-86 -324l170 75l-80 -299zM441 900l188 700h500q149 0 186 -49t-4 -202l-294 -1099q-40 -150 -103.5 -200t-213.5 -50l-500 -1l161 601l-227 -100l80 300z" />
    <glyph glyph-name="Ntilde" unicode="&#xd1;" 
d="M429 1600h250l-40 -150q90 150 190 150h100q150 0 180 -75t3 -175l-362 -1350h-250l362 1350h-250l-362 -1350h-250zM942 1650q-100 0 -173 100l-77 -100h-250l167 250q77 100 227 100q100 0 123 -100l77 100h250l-167 -250q-78 -100 -177 -100z" />
    <glyph glyph-name="Ograve" unicode="&#xd2;" 
d="M929 1600q149 0 186.5 -49t-3.5 -202l-295 -1099q-40 -150 -103.5 -200t-213.5 -50h-250q-150 0 -186.5 50t3.5 199l295 1101q40 149 104 199.5t213 51.5zM567 249l295 1101h-250l-295 -1101h250zM800 2050h250l-101 -375l-216 125z" />
    <glyph glyph-name="Oacute" unicode="&#xd3;" 
d="M929 1600q149 0 186.5 -49t-3.5 -202l-295 -1099q-40 -150 -103.5 -200t-213.5 -50h-250q-150 0 -186.5 50t3.5 199l295 1101q40 149 104 199.5t213 51.5zM567 249l295 1101h-250l-295 -1101h250zM766 1925l284 125l-101 -375h-250z" />
    <glyph glyph-name="Ocircumflex" unicode="&#xd4;" 
d="M929 1600q149 0 186.5 -49t-3.5 -202l-295 -1099q-40 -150 -103.5 -200t-213.5 -50h-250q-150 0 -186.5 50t3.5 199l295 1101q40 149 104 199.5t213 51.5zM567 249l295 1101h-250l-295 -1101h250zM851 1775l-95 -75h-250l267 250h250l133 -250h-250z" />
    <glyph glyph-name="Otilde" unicode="&#xd5;" 
d="M929 1600q149 0 186.5 -49t-3.5 -202l-295 -1099q-40 -150 -103.5 -200t-213.5 -50h-250q-150 0 -186.5 50t3.5 199l295 1101q40 149 104 199.5t213 51.5zM567 249l295 1101h-250l-295 -1101h250zM942 1650q-100 0 -173 100l-77 -100h-250l167 250q77 100 227 100
q100 0 123 -100l77 100h250l-167 -250q-78 -100 -177 -100z" />
    <glyph glyph-name="Odieresis" unicode="&#xd6;" 
d="M929 1600q149 0 186.5 -49t-3.5 -202l-295 -1099q-40 -150 -103.5 -200t-213.5 -50h-250q-150 0 -186.5 50t3.5 199l295 1101q40 149 104 199.5t213 51.5zM567 249l295 1101h-250l-295 -1101h250zM573 1950h250l-67 -250h-250zM973 1950h250l-67 -250h-250z" />
    <glyph glyph-name="multiply" unicode="&#xd7;" horiz-adv-x="750" 
d="M380 741l-58 459h250l12 -142l88 142h250l-304 -459l49 -491h-225l-24 191l-126 -191h-225z" />
    <glyph glyph-name="Oslash" unicode="&#xd8;" 
d="M826 1350h-214l-167 -623zM695 727l-292 -478h164zM50 81q-13 57 17 168l295 1101q40 149 104 199.5t213 51.5l250 -1q26 0 48 -2l2 2h250l-98 -161q-6 -40 -20 -90l-294 -1099q-40 -150 -103.5 -200t-213.5 -50h-500z" />
    <glyph glyph-name="Ugrave" unicode="&#xd9;" 
d="M1179 1600l-362 -1350q-40 -150 -103.5 -200t-213.5 -50h-250q-150 0 -186.5 50t3.5 199l362 1351h250l-362 -1351h250l362 1351h250zM800 2050h250l-101 -375l-216 125z" />
    <glyph glyph-name="Uacute" unicode="&#xda;" 
d="M1179 1600l-362 -1350q-40 -150 -103.5 -200t-213.5 -50h-250q-150 0 -186.5 50t3.5 199l362 1351h250l-362 -1351h250l362 1351h250zM766 1925l284 125l-101 -375h-250z" />
    <glyph glyph-name="Ucircumflex" unicode="&#xdb;" 
d="M1179 1600l-362 -1350q-40 -150 -103.5 -200t-213.5 -50h-250q-150 0 -186.5 50t3.5 199l362 1351h250l-362 -1351h250l362 1351h250zM851 1775l-95 -75h-250l267 250h250l133 -250h-250z" />
    <glyph glyph-name="Udieresis" unicode="&#xdc;" 
d="M1179 1600l-362 -1350q-40 -150 -103.5 -200t-213.5 -50h-250q-150 0 -186.5 50t3.5 199l362 1351h250l-362 -1351h250l362 1351h250zM573 1950h250l-67 -250h-250zM973 1950h250l-67 -250h-250z" />
    <glyph glyph-name="Yacute" unicode="&#xdd;" 
d="M929 1600h250l-361 -1349q-40 -149 -104 -199.5t-214 -51.5l-249 1q-149 0 -186.5 49t3.5 202l27 99l283 125l-60 -225h250l156 582l-563 -233l268 1000h250l-160 -599l276 99zM766 1925l284 125l-101 -375h-250z" />
    <glyph glyph-name="Thorn" unicode="&#xde;" 
d="M612 1351h250q149 0 186.5 -49t-3.5 -202l-161 -599q-40 -150 -103.5 -200t-213.5 -50h-250l-67 -251h-250l429 1600h250zM384 500l250 1l161 599h-250z" />
    <glyph glyph-name="germandbls" unicode="&#xdf;" 
d="M524 651l81 300l170 74l87 325h-250l-362 -1350h-250l362 1350q40 150 103.5 200t213.5 50h250q150 0 186.5 -50t-3.5 -200l-94 -350q-34 -125 -118 -180q63 -21 38 -120l-121 -450q-40 -150 -103.5 -200t-213.5 -50h-100l67 250h100l128 476z" />
    <glyph glyph-name="agrave" unicode="&#xe0;" horiz-adv-x="850" 
d="M658 775l47 176h-200l-47 -176l-283 -125l80 300q40 150 103.5 200t213.5 50h200q150 0 186.5 -50t-3.5 -199l-255 -951h-250l27 100q-76 -99 -174 -99h-52q-149 0 -186 49q-38 49 2 200l54 200q27 100 140 150zM351 375l-33 -124h200l60 224zM679 1600h250l-100 -375
l-217 125z" />
    <glyph glyph-name="aacute" unicode="&#xe1;" horiz-adv-x="850" 
d="M658 775l47 176h-200l-47 -176l-283 -125l80 300q40 150 103.5 200t213.5 50h200q150 0 186.5 -50t-3.5 -199l-255 -951h-250l27 100q-76 -99 -174 -99h-52q-149 0 -186 49q-38 49 2 200l54 200q27 100 140 150zM351 375l-33 -124h200l60 224zM652 1500l284 125
l-101 -375h-250z" />
    <glyph glyph-name="acircumflex" unicode="&#xe2;" horiz-adv-x="850" 
d="M658 775l47 176h-200l-47 -176l-283 -125l80 300q40 150 103.5 200t213.5 50h200q150 0 186.5 -50t-3.5 -199l-255 -951h-250l27 100q-76 -99 -174 -99h-52q-149 0 -186 49q-38 49 2 200l54 200q27 100 140 150zM351 375l-33 -124h200l60 224zM719 1375l-95 -75h-250
l267 250h250l133 -250h-250z" />
    <glyph glyph-name="atilde" unicode="&#xe3;" horiz-adv-x="850" 
d="M658 775l47 176h-200l-47 -176l-283 -125l80 300q40 150 103.5 200t213.5 50h200q150 0 186.5 -50t-3.5 -199l-255 -951h-250l27 100q-76 -99 -174 -99h-52q-149 0 -186 49q-38 49 2 200l54 200q27 100 140 150zM351 375l-33 -124h200l60 224zM835 1250q-100 0 -173 100
l-77 -100h-250l167 250q77 100 227 100q100 0 123 -100l77 100h250l-167 -250q-78 -100 -177 -100z" />
    <glyph glyph-name="adieresis" unicode="&#xe4;" horiz-adv-x="850" 
d="M658 775l47 176h-200l-47 -176l-283 -125l80 300q40 150 103.5 200t213.5 50h200q150 0 186.5 -50t-3.5 -199l-255 -951h-250l27 100q-76 -99 -174 -99h-52q-149 0 -186 49q-38 49 2 200l54 200q27 100 140 150zM351 375l-33 -124h200l60 224zM427 1500h250l-67 -250
h-250zM827 1500h250l-67 -250h-250z" />
    <glyph glyph-name="aring" unicode="&#xe5;" horiz-adv-x="850" 
d="M658 775l47 176h-200l-47 -176l-283 -125l80 300q40 150 103.5 200t213.5 50h200q150 0 186.5 -50t-3.5 -199l-255 -951h-250l27 100q-76 -99 -174 -99h-52q-149 0 -186 49q-38 49 2 200l54 200q27 100 140 150zM351 375l-33 -124h200l60 224zM627 1500h250l-67 -250
h-250z" />
    <glyph glyph-name="ae" unicode="&#xe6;" horiz-adv-x="1300" 
d="M450 0l27 100q-76 -99 -174 -99h-52q-149 0 -186 49q-38 49 2 200l54 200q27 100 140 150l397 175l47 176h-200l-47 -176l-283 -125l80 300q40 150 103.5 200t213.5 50h200q77 0 124 -13q53 13 126 13l200 -1q149 0 187 -49q36 -49 -4 -200l-80 -299l-511 -226l-47 -176
h200l47 176l284 125l-81 -300q-40 -150 -103.5 -200t-213.5 -50h-450zM895 725l227 100l33 124h-200zM578 475l-227 -100l-33 -124h200z" />
    <glyph glyph-name="ccedilla" unicode="&#xe7;" horiz-adv-x="850" 
d="M225 0q-128 4 -161 50q-37 50 3 199l187 700q40 149 104 199.5t214 51.5l199 -1q149 0 186.5 -49t-3.5 -202l-26 -99l-284 -125l60 225h-200l-187 -700h200l47 176l284 125l-81 -300q-40 -150 -103 -200q-59 -46 -189 -50l-40 -149q-40 -149 -104 -199.5t-213 -51.5h-200
l67 250l200 1z" />
    <glyph glyph-name="egrave" unicode="&#xe8;" horiz-adv-x="850" 
d="M364 425l-47 -176h200l47 176l284 125l-81 -300q-40 -150 -103.5 -200t-213.5 -50h-200q-150 0 -186.5 50t3.5 199l187 700q40 149 104 199.5t214 51.5l199 -1q149 0 187 -49q37 -49 -3 -200l-80 -299zM671 825l33 124h-200l-60 -224zM679 1600h250l-101 -375l-216 125z
" />
    <glyph glyph-name="eacute" unicode="&#xe9;" horiz-adv-x="850" 
d="M364 425l-47 -176h200l47 176l284 125l-81 -300q-40 -150 -103.5 -200t-213.5 -50h-200q-150 0 -186.5 50t3.5 199l187 700q40 149 104 199.5t214 51.5l199 -1q149 0 187 -49q37 -49 -3 -200l-80 -299zM671 825l33 124h-200l-60 -224zM652 1500l284 125l-101 -375h-250z
" />
    <glyph glyph-name="ecircumflex" unicode="&#xea;" horiz-adv-x="850" 
d="M364 425l-47 -176h200l47 176l284 125l-81 -300q-40 -150 -103.5 -200t-213.5 -50h-200q-150 0 -186.5 50t3.5 199l187 700q40 149 104 199.5t214 51.5l199 -1q149 0 187 -49q37 -49 -3 -200l-80 -299zM671 825l33 124h-200l-60 -224zM719 1375l-95 -75h-250l267 250h250
l133 -250h-250z" />
    <glyph glyph-name="edieresis" unicode="&#xeb;" horiz-adv-x="850" 
d="M364 425l-47 -176h200l47 176l284 125l-81 -300q-40 -150 -103.5 -200t-213.5 -50h-200q-150 0 -186.5 50t3.5 199l187 700q40 149 104 199.5t214 51.5l199 -1q149 0 187 -49q37 -49 -3 -200l-80 -299zM671 825l33 124h-200l-60 -224zM427 1500h250l-67 -250h-250z
M827 1500h250l-67 -250h-250z" />
    <glyph glyph-name="igrave" unicode="&#xec;" horiz-adv-x="400" 
d="M288 1075l284 125l-322 -1200h-250zM429 1600h250l-101 -375l-216 125z" />
    <glyph glyph-name="iacute" unicode="&#xed;" horiz-adv-x="400" 
d="M288 1075l284 125l-322 -1200h-250zM402 1500l283 125l-100 -375h-250z" />
    <glyph glyph-name="icircumflex" unicode="&#xee;" horiz-adv-x="400" 
d="M288 1075l284 125l-322 -1200h-250zM480 1325l-95 -75h-250l267 250h250l133 -250h-250z" />
    <glyph glyph-name="idieresis" unicode="&#xef;" horiz-adv-x="400" 
d="M288 1075l284 125l-322 -1200h-250zM202 1500h250l-67 -250h-250zM602 1500h250l-67 -250h-250z" />
    <glyph glyph-name="eth" unicode="&#xf0;" horiz-adv-x="850" 
d="M517 250l188 700h-200l-188 -700h200zM700 0h-250l27 100q-77 -99 -177 -101l-50 1q-150 0 -186.5 50t3.5 200l188 700q40 150 103.5 200t213.5 50h50q100 0 123 -100l67 251h-200l67 249h200q150 0 186.5 -50t-3.5 -199z" />
    <glyph glyph-name="ntilde" unicode="&#xf1;" horiz-adv-x="850" 
d="M322 1200h250l-27 -100q77 100 177 100h50q150 0 186.5 -50t-3.5 -200l-255 -950h-250l255 950h-200l-255 -950h-250zM835 1250q-100 0 -173 100l-77 -100h-250l167 250q77 100 227 100q100 0 123 -100l77 100h250l-167 -250q-78 -100 -177 -100z" />
    <glyph glyph-name="ograve" unicode="&#xf2;" horiz-adv-x="850" 
d="M772 1200q148 -1 185.5 -50t-3.5 -202l-187 -698q-40 -150 -103.5 -200t-213.5 -50h-200q-150 0 -186.5 50t3.5 199l187 700q40 149 104 199.5t214 51.5h200zM517 249l187 700h-200l-187 -700h200zM679 1600h250l-101 -375l-216 125z" />
    <glyph glyph-name="oacute" unicode="&#xf3;" horiz-adv-x="850" 
d="M772 1200q148 -1 185.5 -50t-3.5 -202l-187 -698q-40 -150 -103.5 -200t-213.5 -50h-200q-150 0 -186.5 50t3.5 199l187 700q40 149 104 199.5t214 51.5h200zM517 249l187 700h-200l-187 -700h200zM652 1500l284 125l-101 -375h-250z" />
    <glyph glyph-name="ocircumflex" unicode="&#xf4;" horiz-adv-x="850" 
d="M772 1200q148 -1 185.5 -50t-3.5 -202l-187 -698q-40 -150 -103.5 -200t-213.5 -50h-200q-150 0 -186.5 50t3.5 199l187 700q40 149 104 199.5t214 51.5h200zM517 249l187 700h-200l-187 -700h200zM719 1375l-95 -75h-250l267 250h250l133 -250h-250z" />
    <glyph glyph-name="otilde" unicode="&#xf5;" horiz-adv-x="850" 
d="M772 1200q148 -1 185.5 -50t-3.5 -202l-187 -698q-40 -150 -103.5 -200t-213.5 -50h-200q-150 0 -186.5 50t3.5 199l187 700q40 149 104 199.5t214 51.5h200zM517 249l187 700h-200l-187 -700h200zM835 1250q-100 0 -173 100l-77 -100h-250l167 250q77 100 227 100
q100 0 123 -100l77 100h250l-167 -250q-78 -100 -177 -100z" />
    <glyph glyph-name="odieresis" unicode="&#xf6;" horiz-adv-x="850" 
d="M772 1200q148 -1 185.5 -50t-3.5 -202l-187 -698q-40 -150 -103.5 -200t-213.5 -50h-200q-150 0 -186.5 50t3.5 199l187 700q40 149 104 199.5t214 51.5h200zM517 249l187 700h-200l-187 -700h200zM427 1500h250l-67 -250h-250zM827 1500h250l-67 -250h-250z" />
    <glyph glyph-name="divide" unicode="&#xf7;" horiz-adv-x="950" 
d="M187 701l907 399l-80 -299l-907 -400zM584 1250h250l-66 -250h-250zM434 500h250l-67 -250h-250z" />
    <glyph glyph-name="oslash" unicode="&#xf8;" horiz-adv-x="850" 
d="M610 949h-106l-75 -282zM602 568l-211 -319h126zM50 79q-14 56 17 170l187 700q40 149 104 199.5t214 51.5h450l-51 -77q15 -56 -17 -175l-187 -698q-40 -150 -103.5 -200t-213.5 -50h-450z" />
    <glyph glyph-name="ugrave" unicode="&#xf9;" horiz-adv-x="850" 
d="M700 0h-250l27 100q-77 -100 -177 -100h-50q-150 0 -186.5 50t3.5 200l255 950h250l-255 -950h200l255 950h250zM679 1600h250l-101 -375l-216 125z" />
    <glyph glyph-name="uacute" unicode="&#xfa;" horiz-adv-x="850" 
d="M700 0h-250l27 100q-77 -100 -177 -100h-50q-150 0 -186.5 50t3.5 200l255 950h250l-255 -950h200l255 950h250zM652 1500l284 125l-101 -375h-250z" />
    <glyph glyph-name="ucircumflex" unicode="&#xfb;" horiz-adv-x="850" 
d="M700 0h-250l27 100q-77 -100 -177 -100h-50q-150 0 -186.5 50t3.5 200l255 950h250l-255 -950h200l255 950h250zM719 1375l-95 -75h-250l267 250h250l133 -250h-250z" />
    <glyph glyph-name="udieresis" unicode="&#xfc;" horiz-adv-x="850" 
d="M700 0h-250l27 100q-77 -100 -177 -100h-50q-150 0 -186.5 50t3.5 200l255 950h250l-255 -950h200l255 950h250zM427 1500h250l-67 -250h-250zM827 1500h250l-67 -250h-250z" />
    <glyph glyph-name="yacute" unicode="&#xfd;" horiz-adv-x="850" 
d="M771 1199h250l-362 -1349q-39 -149 -103.5 -199.5t-213.5 -51.5l-199 2q-149 0 -186.5 49t2.5 200l284 125l-33 -124l199 -1l121 450l-504 -200l295 1100h250l-187 -699l218 66zM652 1500l283 125l-100 -375h-250z" />
    <glyph glyph-name="thorn" unicode="&#xfe;" horiz-adv-x="850" 
d="M0 0l429 1600h250l-94 -350q77 100 177 100h50q150 0 186.5 -50t-3.5 -200l-161 -600q-40 -150 -103.5 -200t-213.5 -50l-50 -1q-100 2 -123 101l-94 -350h-250zM584 500l161 600h-200l-161 -600h200z" />
    <glyph glyph-name="ydieresis" unicode="&#xff;" horiz-adv-x="850" 
d="M771 1199h250l-362 -1349q-39 -149 -103.5 -199.5t-213.5 -51.5l-199 2q-149 0 -186.5 49t2.5 200l284 125l-33 -124l199 -1l121 450l-504 -200l295 1100h250l-187 -699l218 66zM427 1500h250l-67 -250h-250zM827 1500h250l-67 -250h-250z" />
    <glyph glyph-name="dotlessi" unicode="&#x131;" horiz-adv-x="400" 
d="M288 1075l284 125l-322 -1200h-250z" />
    <glyph glyph-name="circumflex" unicode="&#x2c6;" horiz-adv-x="800" 
d="M801 1775l-95 -75h-250l267 250h250l133 -250h-250z" />
    <glyph glyph-name="caron" unicode="&#x2c7;" horiz-adv-x="800" 
d="M923 1950h250l-267 -250h-250l-133 250h250l55 -75z" />
    <glyph glyph-name="uni02C9" unicode="&#x2c9;" horiz-adv-x="800" 
d="M523 1950h650l-67 -250h-650z" />
    <glyph glyph-name="breve" unicode="&#x2d8;" horiz-adv-x="1229" 
d="M697 1619h61q-3 -88 55.5 -128.5t189.5 -40.5q130 0 209.5 40t124.5 129h61q-67 -160 -178 -242t-258 -82t-215 82.5t-50 241.5z" />
    <glyph glyph-name="dotaccent" unicode="&#x2d9;" horiz-adv-x="400" 
d="M523 1950h250l-67 -250h-250z" />
    <glyph glyph-name="ring" unicode="&#x2da;" horiz-adv-x="400" 
d="M523 1950h250l-67 -250h-250z" />
    <glyph glyph-name="ogonek" unicode="&#x2db;" horiz-adv-x="600" 
d="M40 150l217 -125l-47 -174l200 1l-67 -250l-200 -2q-149 1 -186 51.5t3 199.5z" />
    <glyph glyph-name="tilde" unicode="&#x2dc;" 
d="M942 1650q-100 0 -173 100l-77 -100h-250l167 250q77 100 227 100q100 0 123 -100l77 100h250l-167 -250q-78 -100 -177 -100z" />
    <glyph glyph-name="hungarumlaut" unicode="&#x2dd;" horiz-adv-x="800" 
d="M516 1925l283 125l-100 -375h-250zM916 1925l283 125l-100 -375h-250z" />
    <glyph glyph-name="endash" unicode="&#x2013;" horiz-adv-x="750" 
d="M214 800l681 300l-80 -299l-681 -301z" />
    <glyph glyph-name="emdash" unicode="&#x2014;" horiz-adv-x="950" 
d="M187 701l907 399l-80 -299l-907 -400z" />
    <glyph glyph-name="quoteleft" unicode="&#x2018;" horiz-adv-x="400" 
d="M429 1600h250l-100 -375l-217 125z" />
    <glyph glyph-name="quoteright" unicode="&#x2019;" horiz-adv-x="400" 
d="M611 1350l-283 -125l100 375h250z" />
    <glyph glyph-name="quotesinglbase" unicode="&#x201a;" horiz-adv-x="400" 
d="M250 0l-283 -125l100 375h250z" />
    <glyph glyph-name="quotedblleft" unicode="&#x201c;" horiz-adv-x="750" 
d="M779 1600h250l-100 -375l-217 125zM429 1600h250l-100 -375l-217 125z" />
    <glyph glyph-name="quotedblright" unicode="&#x201d;" horiz-adv-x="750" 
d="M611 1350l-283 -125l100 375h250zM961 1350l-283 -125l100 375h250z" />
    <glyph glyph-name="quotedblbase" unicode="&#x201e;" horiz-adv-x="800" 
d="M250 0l-283 -125l100 375h250zM650 0l-283 -125l100 375h250z" />
    <glyph glyph-name="dagger" unicode="&#x2020;" horiz-adv-x="1217" 
d="M912 1226q21 117 -8 214q-35 121 -26 155q16 59 68 94t124 35q69 0 105.5 -33t22.5 -85q-11 -39 -110 -165q-84 -102 -124 -215q118 10 229 65q140 69 174 69q59 0 83.5 -43.5t4.5 -115.5q-18 -68 -63 -113t-99 -45q-39 0 -146 66q-88 55 -196 68q-48 -211 43 -332
q-276 -552 -448 -1169h-45q157 617 176 1169q154 121 222 332q-118 -12 -232 -66q-139 -68 -172 -68q-59 0 -83 43t-5 115q19 69 64 114t98 45q38 0 146 -68q87 -55 197 -66z" />
    <glyph glyph-name="daggerdbl" unicode="&#x2021;" horiz-adv-x="1217" 
d="M694 223q115 13 232 69q143 66 182 66q54 0 75 -45t2 -114q-19 -72 -66.5 -115t-106.5 -43q-34 0 -137 68q-82 55 -194 65q-21 -113 8 -215q32 -126 22 -164q-14 -53 -68 -86t-123 -33q-72 0 -105.5 35.5t-17.5 94.5q9 33 109 154q81 98 123 214q-116 -11 -233 -66
q-144 -67 -182 -67q-53 0 -74 45t-3 113q20 72 67 115.5t106 43.5q33 0 135 -69q85 -54 197 -66q61 271 -5 478q177 205 260 476q-118 -12 -231 -66q-140 -68 -173 -68q-59 0 -83 43t-4 115q18 69 63 114t98 45q38 0 146 -68q87 -55 197 -66q22 117 -7 214q-36 121 -27 155
q16 59 68.5 94t124.5 35q69 0 105 -33t22 -85q-10 -39 -110 -165q-83 -102 -124 -215q118 10 230 65q139 69 173 69q59 0 83.5 -43.5t5.5 -115.5q-19 -68 -64 -113t-99 -45q-39 0 -146 66q-87 55 -196 68q-63 -271 5 -476q-179 -207 -260 -478z" />
    <glyph glyph-name="bullet" unicode="&#x2022;" horiz-adv-x="1229" 
d="M490 862q39 147 171.5 250.5t279.5 103.5t222.5 -104t36.5 -250q-40 -147 -173 -252t-279 -105q-148 0 -223 104.5t-35 252.5z" />
    <glyph glyph-name="ellipsis" unicode="&#x2026;" horiz-adv-x="1200" 
d="M67 250h250l-67 -250h-250zM467 250h250l-67 -250h-250zM867 250h250l-67 -250h-250z" />
    <glyph glyph-name="guilsinglleft" unicode="&#x2039;" horiz-adv-x="750" 
d="M388 758l359 -208l-80 -300l-520 300l107 400l694 350l-80 -300z" />
    <glyph glyph-name="guilsinglright" unicode="&#x203a;" horiz-adv-x="750" 
d="M268 1000l80 300l507 -350l-108 -400l-680 -300l80 300l471 208z" />
    <glyph glyph-name="fraction" unicode="&#x2044;" horiz-adv-x="950" 
d="M979 1600h250l-979 -1600h-250z" />
    <glyph glyph-name="fraction" unicode="&#x2215;" horiz-adv-x="950" 
d="M979 1600h250l-979 -1600h-250z" />
    <glyph glyph-name="franc" unicode="&#x20a3;" horiz-adv-x="950" 
d="M284 500l295 1100h650l-67 -250h-400l-121 -449l454 199l-80 -299l-454 -200l-27 -101h150l-67 -250h-150l-67 -250h-250l67 250h-150l67 250h150z" />
    <glyph glyph-name="lira" unicode="&#x20a4;" horiz-adv-x="975" 
d="M589 613l-97 -364l400 1l-67 -250h-825l67 251h175l64 237l-199 -88l81 300l198 88l151 562q40 149 104 199.5t213 51.5l150 -1q149 0 186 -49t-4 -202l-26 -99l-284 -125l61 225h-150l-117 -437l198 87l-80 -299z" />
    <glyph glyph-name="peseta" unicode="&#x20a7;" horiz-adv-x="1050" 
d="M1012 1350h-250l-121 -449l284 124zM284 500l295 1100h500q150 0 186.5 -50t-3.5 -200l-94 -350q-40 -150 -153 -199l-454 -200l-27 -101h150l-67 -250h-150l-67 -250h-250l67 250h-150l67 250h150z" />
    <glyph glyph-name="Euro" unicode="&#x20ac;" horiz-adv-x="1050" 
d="M534 500l-67 -251h250l47 176l283 125l-80 -300q-40 -150 -103.5 -200t-213.5 -50h-250q-150 0 -186.5 50t3.5 199l67 251h-150l67 250h150l27 100h-150l67 250h150l67 250q40 149 104 199.5t213 51.5l250 -1q149 0 186 -49t-4 -202l-26 -99l-284 -125l61 225h-250
l-67 -250h150l-67 -250h-150l-27 -100h150l-67 -250h-150z" />
    <glyph glyph-name="afii61352" unicode="&#x2116;" horiz-adv-x="950" 
d="M429 1601h125l-20 -75q45 75 95 75h50q75 0 90 -37.5t2 -87.5l-181 -675h-125l181 675h-125l-181 -675h-125zM1104 1601q75 0 93.5 -24.5t-1.5 -101.5l-148 -549q-20 -75 -51.5 -100t-106.5 -25h-125q-75 0 -93.5 25t1.5 99l148 551q20 74 52 99.5t106 25.5h125zM923 925
l148 551h-125l-148 -551h125z" />
    <glyph glyph-name="trademark" unicode="&#x2122;" horiz-adv-x="1175" 
d="M352 800l181 675h-138l33 125h405l-33 -125h-142l-181 -675h-125zM1156 1563q22 37 72 37h100q75 0 93.5 -25t-1.5 -99l-181 -676h-125l181 676h-100l-181 -676h-125l181 676h-100l-181 -676h-125l181 675q20 75 51.5 100t106.5 25h100q50 0 53 -37z" />
    <glyph glyph-name="partialdiff" unicode="&#x2202;" horiz-adv-x="1216" 
d="M451 644q-14 -49 -20 -94q-22 -147 0.5 -276.5t88.5 -197.5q60 -64 137 -64q7 0 16 1q85 6 175 84.5t155 215.5q43 88 67 179q13 50 21 102q22 146 -0.5 277.5t-89.5 198.5q-62 60 -138 60h-13q-84 -6 -174 -83t-156 -214q-46 -101 -69 -189zM1277 572
q-42 -158 -148.5 -301t-250.5 -222t-278 -79t-236 79t-131.5 222t12.5 301q43 158 151 302t252.5 222t274.5 78q131 0 233 -78q29 -22 51 -50q-25 282 -158.5 452.5t-341.5 186.5l17 66q367 0 526.5 -342t26.5 -837z" />
    <glyph glyph-name="Delta" unicode="&#x2206;" horiz-adv-x="1297" 
d="M1001 1434l-832 -1286h962zM1117 1721l170 -1721h-1280z" />
    <glyph glyph-name="product" unicode="&#x220f;" horiz-adv-x="1818" 
d="M1059 1661q-123 0 -199 -282l-412 -1537q-75 -282 48 -282h116l-17 -62h-672l17 62h115q124 0 199 282l412 1537q76 282 -48 282h-115l16 60h1703l-16 -60h-117q-122 0 -198 -282l-412 -1537q-75 -282 47 -282h117l-16 -60h-672l16 60h115q124 0 199 282l412 1537
q76 282 -48 282h-590z" />
    <glyph glyph-name="summation" unicode="&#x2211;" horiz-adv-x="1447" 
d="M1447 658l-1240 -1097h762q156 0 285 218h59l-198 -278h-1105l16 60q74 0 144 63l1047 938l-520 1030q-34 69 -108 69l16 60h1105l49 -279h-59q-12 219 -168 219h-582z" />
    <glyph glyph-name="minus" unicode="&#x2212;" horiz-adv-x="750" 
d="M214 800l681 300l-80 -299l-681 -301z" />
    <glyph glyph-name="radical" unicode="&#x221a;" horiz-adv-x="1216" 
d="M217 0l-82 431l100 42l43 -222l1345 1764h180l-19 -72h-86z" />
    <glyph glyph-name="infinity" unicode="&#x221e;" horiz-adv-x="1217" 
d="M770 906q15 124 -46 160q-48 26 -94 26q-14 0 -29 -2q-61 -12 -124.5 -53.5t-105.5 -101.5q-39 -55 -53 -108l-3 -10q-13 -57 4 -106.5t68 -69.5q30 -13 69 -13q19 0 40 3q61 12 123.5 52.5t150.5 222.5zM780 824q-17 -115 64 -183q67 -58 131 -58q14 0 27 3
q78 14 157.5 62t133.5 121q49 65 66 130l4 13q17 72 -8 130t-88 82q-40 16 -86 16q-27 0 -55 -5q-84 -11 -173 -74.5t-173 -236.5zM806 992q22 42 47 83q70 106 158.5 164.5t169.5 58.5q80 0 137.5 -57.5t70.5 -162t-17 -218.5q-31 -114 -100 -218t-157.5 -162t-168.5 -58
q-81 0 -138 59t-70 163q-3 42 -3 84q-12 -25 -28 -49q-55 -87 -124.5 -135t-131.5 -48q-63 0 -107.5 49t-51.5 136t18 179q24 92 78 179.5t124.5 136.5t133.5 49q62 0 106 -48t53 -134q2 -25 1 -51z" />
    <glyph glyph-name="integral" unicode="&#x222b;" horiz-adv-x="798" 
d="M-104 -337q-72 0 -63 35l51 190h43q-12 -51 21.5 -77t69.5 -26h1q98 0 190 195q90 194 149 379l321 881l29 74q109 286 300 515.5t342 229.5q72 0 63 -35l-51 -190h-43q12 51 -22 77t-68 26q-86 0 -190 -186.5t-175 -436.5l-334 -920q-99 -278 -292 -504.5t-342 -226.5z
" />
    <glyph glyph-name="approxequal" unicode="&#x2248;" horiz-adv-x="1217" 
d="M1446 1264l-50 -188q-99 -86 -177.5 -116.5t-147.5 -30.5q-72 0 -197.5 58t-196.5 58q-61 0 -137.5 -33.5t-191.5 -134.5l50 187q100 88 179 119t145 31q77 0 202 -59t191 -59q63 0 139.5 33.5t191.5 134.5zM1334 846l-50 -187q-99 -87 -177.5 -117.5t-147.5 -30.5
q-72 0 -197.5 58.5t-196.5 58.5q-61 0 -137.5 -34t-191.5 -134l50 187q100 87 179 118.5t145 31.5q77 0 202 -59.5t191 -59.5q63 0 139.5 33.5t191.5 134.5z" />
    <glyph glyph-name="lessequal" unicode="&#x2264;" horiz-adv-x="1216" 
d="M1457 1289l-865 -431l635 -426l-53 -200l-853 577l26 99l1164 581zM104 1l45 168h1007l1 -1l-45 -167h-1008z" />
    <glyph glyph-name="greaterequal" unicode="&#x2265;" horiz-adv-x="1216" 
d="M503 1489l853 -581l-27 -99l-1162 -577l53 200l864 426l-634 431zM105 2l45 168h1007l1 -1l-45 -167h-1008z" />
    <glyph glyph-name="uniF001" unicode="&#xf001;" horiz-adv-x="1288" 
 />
    <glyph glyph-name="uniF001" unicode="&#xfb01;" horiz-adv-x="1288" 
 />
    <glyph glyph-name="uniF002" unicode="&#xf002;" horiz-adv-x="1297" 
 />
    <glyph glyph-name="uniF002" unicode="&#xfb02;" horiz-adv-x="1297" 
 />
  </font>
</defs>
</svg>
